<?xml version="1.0" encoding="UTF-8" standalone="no"?>
<!-- Created with Inkscape (http://www.inkscape.org/) -->

<svg
   version="1.1"
   id="svg2"
   width="432.62668"
   height="120.57333"
   viewBox="0 0 432.62668 120.57333"
   xmlns="http://www.w3.org/2000/svg"
   xmlns:svg="http://www.w3.org/2000/svg">
  <defs
     id="defs6">
    <clipPath
       clipPathUnits="userSpaceOnUse"
       id="clipPath42">
      <path
         d="m 98.2519,88.6414 c 1.2711,0.3146 2.6751,0.4719 4.212,0.4719 h 7.6496 c 0.9275,0 1.7096,0.3286 2.3471,0.9853 0.6375,0.6568 0.9564,1.4488 0.9564,2.3766 0,0.9272 -0.3189,1.7286 -0.9564,2.4046 -0.6375,0.6764 -1.4,1.0148 -2.289,1.0148 H 98.2519 Z m -8.0745,7.2532 v 6.8837 1.2294 h 19.0089 c 2.1637,0 4.028,-0.309 5.5928,-0.9272 1.5644,-0.618 2.8493,-1.4488 3.8539,-2.4917 1.0046,-1.0434 1.7385,-2.26 2.202,-3.6513 0.4637,-1.3907 0.6956,-2.859 0.6956,-4.4047 0,-1.4296 -0.2219,-2.8302 -0.6667,-4.2016 -0.4442,-1.3716 -1.1585,-2.5985 -2.1438,-3.6802 -0.9854,-1.0814 -2.2604,-1.9604 -3.8254,-2.6368 -1.5647,-0.676 -3.4676,-1.0139 -5.7084,-1.0139 h -7.8239 c -0.8884,0 -1.6228,-0.3478 -2.2022,-1.0434 C 98.5808,79.2612 98.2908,78.45 98.2908,77.5227 V 65.874 h -8.1134 v 6.8168 4.9476 z M 320.9406,85.4045 333.5165,65.874 H 323.78 l -8.4033,14.1985 -8.4033,-14.1985 h -9.7364 l 12.5181,19.5305 -12.576,18.6032 h 9.7359 l 8.4617,-14.0828 8.4614,14.0828 h 9.7365 z M 286.2255,65.874 v 38.1337 h 8.1136 V 65.874 Z m -5.216,9.3306 c 0,-1.4636 -0.2617,-2.8123 -0.7821,-4.0278 -0.5202,-1.2163 -1.2461,-2.2513 -2.1733,-3.1008 -0.927,-0.8495 -2.0206,-1.5075 -3.2746,-1.9701 -1.2546,-0.4626 -2.5982,-0.6956 -4.0275,-0.6956 -2.0863,0 -3.9699,0.6568 -5.6508,1.9706 -1.681,1.3136 -2.9322,3.1213 -3.6803,5.4477 l -7.012,21.7905 c -0.2994,0.9309 -0.6571,1.4487 -1.5072,1.4487 -1.1203,0 -1.6807,-0.7749 -1.6807,-2.3176 V 65.874 h -8.5192 v 28.5716 c 0,1.4678 0.2613,2.8108 0.7826,4.0277 0.5213,1.2167 1.2462,2.2507 2.1734,3.1003 0.9269,0.8498 2.01,1.508 3.2453,1.9706 1.2354,0.4621 2.5886,0.6956 4.0567,0.6956 2.0863,0 3.9711,-0.6584 5.6503,-1.9706 1.6795,-1.3127 2.9322,-3.1235 3.6802,-5.4476 l 7.0127,-21.7911 c 0.2993,-0.9286 0.7146,-1.4488 1.6803,-1.4488 1.0049,0 1.5072,0.773 1.5072,2.3182 v 28.1078 h 8.519 z m -43.5237,20.69 h -19.9945 c -0.8861,0 -1.6515,-0.3384 -2.289,-1.0148 -0.6375,-0.676 -0.9564,-1.4774 -0.9564,-2.4046 0,-0.9278 0.3005,-1.7212 0.8983,-2.3766 0.5978,-0.6559 1.4006,-0.9853 2.4052,-0.9853 h 19.9364 v -8.113 h -19.9945 c -0.8861,0 -1.6526,-0.3399 -2.289,-1.0145 -0.6361,-0.675 -0.9564,-1.5166 -0.9564,-2.5212 0,-0.9657 0.3189,-1.7866 0.9564,-2.463 0.6375,-0.6761 1.4199,-1.0139 2.3471,-1.0139 h 19.9364 V 65.874 h -19.0092 c -2.2773,0 -4.2029,0.3294 -5.7665,0.9851 -1.5636,0.6556 -2.8395,1.5358 -3.8248,2.6371 -0.9853,1.1009 -1.7013,2.3485 -2.1444,3.7383 -0.4428,1.3895 -0.6664,2.8202 -0.6664,4.2882 0,0.6957 0.0677,1.4395 0.2027,2.2315 0.1352,0.792 0.3688,1.5366 0.6956,2.2308 0.3274,0.6942 0.7532,1.3136 1.275,1.8547 0.5216,0.5412 1.1687,0.9465 1.9412,1.2172 -1.5452,0.7339 -2.609,1.8267 -3.1873,3.2743 -0.5786,1.4477 -0.8694,3.1587 -0.8694,5.1293 0,3.3611 1.0627,5.9593 3.1876,7.7947 2.1251,1.8352 5.1775,2.7525 9.1567,2.7525 h 19.0092 z M 149.4065,65.874 V 81.0003 H 134.2806 V 65.874 h -8.1136 v 38.1337 h 8.1136 V 89.1133 h 15.1259 v 14.8944 h 8.1136 V 65.874 Z"
         clip-rule="evenodd"
         id="path40" />
    </clipPath>
    <linearGradient
       x1="233.59"
       y1="68.199997"
       x2="231.84"
       y2="102.69"
       gradientUnits="userSpaceOnUse"
       spreadMethod="pad"
       id="linearGradient48">
      <stop
         style="stop-opacity:1;stop-color:#3e4095"
         offset="0"
         id="stop44" />
      <stop
         style="stop-opacity:1;stop-color:#0095c9"
         offset="1"
         id="stop46" />
    </linearGradient>
    <clipPath
       clipPathUnits="userSpaceOnUse"
       id="clipPath62">
      <path
         d="m 32.9919,99.0213 c 0.0017,4.5303 2.0219,8.7698 5.1735,11.4063 0.6514,0.5451 2.1926,1.7725 3.0614,2.1668 -2.6008,-0.3416 -11.0356,-4.4787 -11.8905,-6.9919 -1.2475,-3.6661 -0.6639,-10.4151 0.6353,-13.788 -2.3562,2.6438 -2.945,7.5387 -2.9926,11.7992 -0.3313,-0.2305 -0.0714,-0.0139 -0.3265,-0.2946 -0.0165,-0.0181 -0.2143,-0.2803 -0.2393,-0.3174 -0.1355,-0.2047 -0.2466,-0.4366 -0.3688,-0.6614 -0.2724,-0.5017 -0.4691,-0.8563 -0.7098,-1.3643 -1.2801,-2.7037 -3.0035,-6.8111 -2.0426,-9.7517 2.2825,-6.9817 5.1565,-8.1751 6.4596,-10.1767 -4.4878,1.4468 -7.0467,7.6791 -7.5889,8.3013 -0.201,-4.4456 -0.2506,-11.5118 2.9803,-14.0703 1.9131,-1.5149 5.6183,-2.6003 8.1221,-3.2641 0.2186,-0.0582 0.4958,-0.1242 0.6786,-0.2039 0.4814,-0.2097 0.2756,-0.1133 0.5242,-0.3149 -5.5877,0.2115 -5.9619,1.2682 -9.0063,1.7314 1.3272,-2.4352 4.5729,-5.6908 6.6249,-7.2431 2.0112,-1.521 6.0982,-4.2312 9.2582,-4.8053 -0.1494,0.1897 -0.0839,0.114 -0.2764,0.2974 -2.3108,2.2011 -4.043,2.7419 -5.5763,6.196 1.8136,-0.2747 6.0475,-3.4569 7.7077,-4.741 1.0018,-0.775 1.6087,-0.9768 1.275,-2.3278 -0.5845,-2.3698 -1.4275,-4.0969 -2.4088,-6.0687 -1.7153,-3.4469 -1.4451,-1.9976 -0.5879,-6.3031 1.1956,1.3501 1.7963,4.2979 2.9137,5.7348 -0.131,-1.3465 -0.8643,-3.6185 -1.3167,-4.9369 -1.6146,-4.7018 -2.0112,-4.0203 -0.7209,-5.5978 1.6799,-2.0537 2.5555,-4.8093 3.5306,-7.2437 -0.0652,3.5195 -0.0799,7.0606 0.1636,10.5792 0.0864,1.2501 0.4597,3.2882 0.4881,4.1369 0.1406,-3.4506 0.2783,-6.7731 0.5445,-10.19 0.2489,-3.198 0.7671,-6.3065 1.0208,-9.3084 0.7279,1.4729 1.2736,15.9061 1.4315,18.8218 0.2457,-0.398 0.3257,-1.1481 0.3716,-1.6512 l 0.7067,-12.2188 c 0.3296,0.4448 1.3787,3.4935 1.7937,4.3799 2.5373,5.4178 2.6187,2.2821 0.5159,8.4231 -0.4303,1.2555 -1.1469,3.5022 -1.2719,4.8067 1.1203,-1.4451 1.7147,-4.3804 2.9143,-5.7365 0.1327,0.671 0.7161,3.4918 0.6463,3.9442 -0.0881,0.5686 -3.2207,5.6279 -3.8511,9.519 1.8482,1.5103 6.3374,5.1194 9.125,5.9658 -0.6166,-2.3559 -3.2205,-4.3957 -5.0054,-5.8034 -0.1877,-0.1479 -0.2449,-0.1743 -0.3972,-0.3024 l -0.3852,-0.3751 c 5.728,1.173 13.1956,7.102 15.8822,12.0484 -3.0322,-0.4626 -3.4446,-1.5245 -9.0051,-1.7314 1.1464,0.9303 6.8627,1.7147 9.4199,3.8602 3.1215,2.6195 3.0838,9.6095 2.8907,14.0021 -0.5425,-0.6387 -0.9402,-1.7876 -1.3907,-2.5436 -1.2651,-2.1237 -3.5929,-4.9246 -6.203,-5.7668 1.3073,2.0089 4.1664,3.1811 6.4584,10.1767 0.7181,2.1903 -0.1255,4.7355 -0.8367,6.815 -0.366,1.0701 -0.741,1.9531 -1.2056,2.9367 l -1.645,2.6385 c -0.0413,-4.2718 -0.6378,-9.1352 -2.9919,-11.8 0.8129,2.0984 1.2994,4.7256 1.2994,7.2068 0,1.8323 -0.0627,5.1417 -0.7118,6.7076 -0.9601,2.3159 -9.2126,6.5778 -11.8332,6.8561 2.0007,-0.8112 4.5144,-3.4052 5.6749,-5.2296 2.5883,-4.0683 2.9982,-8.8027 2.0693,-13.5714 -0.2015,-1.0347 -0.993,-2.8627 -0.7645,-3.5938 0.8524,-2.7255 1.6674,-4.3639 1.336,-7.6997 -0.383,-3.8549 -2.304,-6.8474 -4.9456,-9.0154 -0.4516,-0.3707 -0.7433,-0.6392 -1.2501,-0.9946 l -1.2263,-0.8218 c -0.013,0.0286 -0.0578,-0.0955 -0.0995,-0.0927 L 55.41,71.7426 c 1.3251,0.7339 3.4993,3.3302 4.5019,4.8515 2.0455,3.1022 2.5362,6.0936 2.0078,9.7339 -0.4167,-0.7583 -0.8478,-2.5251 -1.3121,-3.5252 -1.5024,-3.2366 -3.5456,-5.6664 -6.6399,-7.5203 -0.29,-1.8221 -1.205,-5.9811 -2.4035,-6.7748 -0.089,1.4006 -0.7557,8.1369 -0.5783,8.8781 0.0953,0.3974 1.3232,2.2085 1.6886,3.1635 0.4337,1.1324 0.8218,2.6767 0.4184,4.0241 -0.1318,-1.3737 -1.1063,-2.6811 -1.8907,-3.2483 -1.2954,-0.9371 -2.1351,-0.2338 -3.7573,-1.4207 -1.91,-1.3969 -4.0567,-4.1468 -3.511,-6.9239 0.8926,1.887 1.2101,3.0538 3.2564,3.6366 l -2.4332,-8.5669 c -0.8734,0.7614 -1.3944,2.2337 -1.7904,3.2885 -0.5496,1.4635 -0.6435,2.3462 -0.8929,3.9447 -2.0996,1.2444 -3.7349,2.7635 -5.0049,4.6649 -1.883,2.8205 -1.7478,3.7667 -2.9505,6.3797 -0.9542,-4.6409 0.9328,-8.8651 3.7349,-11.982 0.5207,-0.5792 0.7645,-0.8859 1.3555,-1.4143 l 1.203,-1.3475 c -0.4121,0.39 -0.8543,0.6054 -1.4006,0.9816 -1.3864,0.955 -2.4607,2.0004 -3.5158,3.3902 -2.2232,2.9282 -3.1334,6.9818 -2.3414,10.8029 0.2843,1.3725 0.8569,2.4488 1.1248,3.5586 0.1324,0.5491 -0.6653,2.7204 -0.8339,3.6116 -0.3178,1.679 -0.4536,3.4067 -0.453,5.0922"
         clip-rule="evenodd"
         id="path60" />
    </clipPath>
    <linearGradient
       x1="35.380001"
       y1="109.8"
       x2="35.650002"
       y2="48.790001"
       gradientUnits="userSpaceOnUse"
       spreadMethod="pad"
       id="linearGradient68">
      <stop
         style="stop-opacity:1;stop-color:#ed3237"
         offset="0"
         id="stop64" />
      <stop
         style="stop-opacity:1;stop-color:#702d2c"
         offset="1"
         id="stop66" />
    </linearGradient>
  </defs>
  <g
     id="g8"
     transform="matrix(1.3333333,0,0,-1.3333333,-23.64,159.64)">
    <path
       d="m 95.5281,42.9613 v -0.3852 h -6.2399 v 0.3852 h 0.5165 c 0.6041,0 1.0397,0.1715 1.3144,0.5103 0.1721,0.2247 0.2563,0.7599 0.2563,1.6092 v 9.1837 c 0,0.7171 -0.0474,1.1917 -0.1392,1.4198 -0.0731,0.1749 -0.2197,0.3249 -0.4431,0.4496 -0.3146,0.1678 -0.6443,0.2498 -0.9884,0.2498 h -0.5165 v 0.3855 h 6.2399 v -0.3855 h -0.5235 c -0.5933,0 -1.0253,-0.1713 -1.2966,-0.51 -0.1794,-0.2248 -0.2673,-0.76 -0.2673,-1.6092 v -9.1837 c 0,-0.7172 0.0476,-1.1917 0.1395,-1.4202 0.0694,-0.1746 0.2196,-0.3245 0.4501,-0.4495 0.3076,-0.1676 0.6301,-0.2498 0.9743,-0.2498 z"
       style="fill:#3e4095;fill-opacity:1;fill-rule:nonzero;stroke:none"
       id="path10" />
    <path
       d="m 101.5761,56.7692 h 3.9147 l 8.924,-10.6575 v 8.1956 c 0,0.8742 -0.1026,1.4198 -0.3042,1.6376 -0.2673,0.2925 -0.6919,0.4388 -1.2704,0.4388 h -0.5125 v 0.3855 h 5.1193 v -0.3855 h -0.5201 c -0.6262,0 -1.0656,-0.182 -1.3295,-0.5457 -0.1573,-0.2248 -0.2378,-0.735 -0.2378,-1.5307 V 42.3476 h -0.3884 l -9.5867,11.4316 V 45.038 c 0,-0.8742 0.0989,-1.4202 0.2931,-1.6376 0.2744,-0.2928 0.6993,-0.4391 1.2741,-0.4391 h 0.5202 v -0.3852 h -5.1196 v 0.3852 h 0.513 c 0.6296,0 1.0727,0.182 1.3366,0.546 0.1573,0.2248 0.2378,0.735 0.2378,1.5307 v 9.8688 c -0.4212,0.4816 -0.7433,0.7991 -0.9595,0.9524 -0.2194,0.1534 -0.5381,0.2963 -0.9593,0.4318 -0.2086,0.0606 -0.5235,0.0927 -0.9448,0.0927 z"
       style="fill:#3e4095;fill-opacity:1;fill-rule:nonzero;stroke:none"
       id="path12" />
    <path
       d="m 136.2713,56.7692 0.154,-3.3361 h -0.4065 c -0.0805,0.585 -0.1868,1.0063 -0.3223,1.256 -0.2234,0.4031 -0.5165,0.7027 -0.8861,0.8918 -0.37,0.1927 -0.8535,0.2891 -1.4539,0.2891 h -2.0506 V 45.038 c 0,-0.8742 0.0952,-1.4202 0.2891,-1.6376 0.271,-0.2928 0.6886,-0.4391 1.2527,-0.4391 h 0.5014 v -0.3852 h -6.196 v 0.3852 h 0.5236 c 0.6228,0 1.0621,0.182 1.3258,0.546 0.1576,0.2248 0.2381,0.735 0.2381,1.5307 V 55.87 h -1.7467 c -0.6812,0 -1.1648,-0.0499 -1.4502,-0.1463 -0.3734,-0.132 -0.6886,-0.3852 -0.9559,-0.7636 -0.2636,-0.3745 -0.4209,-0.8847 -0.4722,-1.527 h -0.4065 l 0.1536,3.3361 z"
       style="fill:#3e4095;fill-opacity:1;fill-rule:nonzero;stroke:none"
       id="path14" />
    <path
       d="m 147.3766,55.9984 v -5.6086 h 3.2077 c 0.8314,0 1.3842,0.1213 1.6625,0.364 0.3736,0.3208 0.5786,0.8847 0.6225,1.6911 h 0.3955 v -4.945 h -0.3955 c -0.0986,0.6919 -0.2015,1.1381 -0.3002,1.3342 -0.1281,0.2427 -0.3407,0.4354 -0.6335,0.5743 -0.2931,0.1392 -0.7433,0.2107 -1.3513,0.2107 h -3.2077 v -4.6812 c 0,-0.6279 0.0292,-1.0097 0.0842,-1.1452 0.0587,-0.1355 0.1573,-0.246 0.3002,-0.3245 0.1429,-0.0822 0.4176,-0.1214 0.8167,-0.1214 h 2.4644 c 0.8201,0 1.417,0.057 1.7907,0.1676 0.3699,0.1105 0.7287,0.3319 1.0692,0.6602 0.443,0.4317 0.8971,1.0845 1.362,1.955 h 0.4397 l -1.256,-3.5535 h -11.2238 v 0.3852 h 0.5162 c 0.3444,0 0.6701,0.0822 0.9779,0.2427 0.2308,0.1105 0.3881,0.2783 0.4689,0.5031 0.0839,0.2248 0.1244,0.6815 0.1244,1.3737 v 9.2265 c 0,0.8991 -0.0916,1.4522 -0.2784,1.6591 -0.2599,0.2784 -0.6885,0.4173 -1.2928,0.4173 h -0.5162 v 0.3855 h 11.2274 l 0.154,-3.1255 h -0.4176 c -0.1502,0.7529 -0.3152,1.2702 -0.498,1.552 -0.1831,0.2817 -0.4541,0.496 -0.8096,0.6457 -0.2852,0.1035 -0.7906,0.157 -1.5123,0.157 z"
       style="fill:#3e4095;fill-opacity:1;fill-rule:nonzero;stroke:none"
       id="path16" />
    <path
       d="m 176.8791,42.5761 h -3.9 l -4.9473,6.6362 c -0.3551,-0.0142 -0.6443,-0.0213 -0.8679,-0.0213 -0.0913,0 -0.1902,0.0034 -0.2928,0.0071 -0.1063,0.0034 -0.2124,0.0071 -0.326,0.0142 v -4.1315 c 0,-0.8921 0.0989,-1.4451 0.3004,-1.6591 0.271,-0.3067 0.6775,-0.4604 1.2195,-0.4604 h 0.5675 v -0.3852 h -6.2399 v 0.3852 h 0.5457 c 0.6151,0 1.0545,0.1965 1.3181,0.5854 0.1505,0.214 0.2233,0.7276 0.2233,1.5341 v 9.1837 c 0,0.892 -0.0989,1.4451 -0.3001,1.6591 -0.2781,0.3067 -0.6923,0.4601 -1.2413,0.4601 h -0.5457 v 0.3855 h 5.3022 c 1.5491,0 2.6881,-0.1106 3.4203,-0.3283 0.7361,-0.2214 1.3586,-0.6279 1.8675,-1.2166 0.513,-0.5888 0.7693,-1.2918 0.7693,-2.1087 0,-0.8742 -0.2928,-1.6305 -0.8754,-2.2728 -0.5856,-0.6421 -1.4867,-1.0953 -2.7133,-1.3629 l 3.0138,-4.0638 c 0.6883,-0.9348 1.2779,-1.559 1.7725,-1.866 0.4904,-0.3104 1.1347,-0.5032 1.9296,-0.5888 z m -10.334,7.2998 c 0.1358,0 0.2528,0 0.3515,-0.0034 0.0989,-0.0037 0.1794,-0.0071 0.2418,-0.0071 1.3731,0 2.4094,0.2925 3.1053,0.8776 0.6996,0.5887 1.0471,1.3343 1.0471,2.2405 0,0.885 -0.2817,1.6055 -0.8419,2.1623 -0.564,0.553 -1.3113,0.8314 -2.2376,0.8314 -0.4102,0 -0.9666,-0.0644 -1.6662,-0.1928 z"
       style="fill:#3e4095;fill-opacity:1;fill-rule:nonzero;stroke:none"
       id="path18" />
    <path
       d="m 182.1949,56.7692 h 3.9146 l 8.924,-10.6575 v 8.1956 c 0,0.8742 -0.1026,1.4198 -0.3041,1.6376 -0.2673,0.2925 -0.692,0.4388 -1.2705,0.4388 h -0.5125 v 0.3855 h 5.1194 v -0.3855 h -0.5202 c -0.6262,0 -1.0655,-0.182 -1.3294,-0.5457 -0.1574,-0.2248 -0.2379,-0.735 -0.2379,-1.5307 V 42.3476 H 195.59 l -9.5868,11.4316 V 45.038 c 0,-0.8742 0.0989,-1.4202 0.2928,-1.6376 0.2747,-0.2928 0.6996,-0.4391 1.2745,-0.4391 h 0.5201 v -0.3852 h -5.1196 v 0.3852 h 0.5131 c 0.6295,0 1.0726,0.182 1.3365,0.546 0.1573,0.2248 0.2378,0.735 0.2378,1.5307 v 9.8688 c -0.4212,0.4816 -0.7432,0.7991 -0.9595,0.9524 -0.2194,0.1534 -0.538,0.2963 -0.9592,0.4318 -0.2087,0.0606 -0.5236,0.0927 -0.9448,0.0927 z"
       style="fill:#3e4095;fill-opacity:1;fill-rule:nonzero;stroke:none"
       id="path20" />
    <path
       d="m 214.2351,47.3071 h -5.6429 l -0.974,-2.2229 c -0.2418,-0.5494 -0.3662,-0.9632 -0.3662,-1.2345 0,-0.214 0.106,-0.4065 0.3186,-0.5706 0.2086,-0.1607 0.6664,-0.2676 1.3657,-0.3178 v -0.3852 h -4.5921 v 0.3852 c 0.6081,0.1035 0.9998,0.2393 1.1792,0.4068 0.3663,0.3353 0.7691,1.0168 1.2121,2.0409 l 5.1231,11.6813 h 0.3625 l 5.0644,-11.8063 c 0.4068,-0.949 0.7764,-1.5627 1.1095,-1.8482 0.3333,-0.2817 0.7948,-0.4388 1.3915,-0.4745 v -0.3852 h -5.7418 v 0.3852 c 0.5788,0.0287 0.9705,0.1213 1.1758,0.2821 0.2046,0.1604 0.3036,0.3566 0.3036,0.5887 0,0.3067 -0.1429,0.792 -0.4284,1.4556 z m -0.3293,0.7708 -2.4537,5.7262 -2.5194,-5.7262 z"
       style="fill:#3e4095;fill-opacity:1;fill-rule:nonzero;stroke:none"
       id="path22" />
    <path
       d="m 236.1356,56.7692 0.1539,-3.3361 h -0.4064 c -0.0805,0.585 -0.1868,1.0063 -0.3223,1.256 -0.2234,0.4031 -0.5165,0.7027 -0.8862,0.8918 -0.3699,0.1927 -0.8532,0.2891 -1.4538,0.2891 h -2.0506 V 45.038 c 0,-0.8742 0.0952,-1.4202 0.2894,-1.6376 0.2707,-0.2928 0.6882,-0.4391 1.2523,-0.4391 h 0.5018 v -0.3852 h -6.1963 v 0.3852 h 0.5239 c 0.6224,0 1.0618,0.182 1.3257,0.546 0.1573,0.2248 0.2379,0.735 0.2379,1.5307 V 55.87 h -1.7468 c -0.6811,0 -1.1644,-0.0499 -1.4499,-0.1463 -0.3736,-0.132 -0.6888,-0.3852 -0.9561,-0.7636 -0.2636,-0.3745 -0.421,-0.8847 -0.4723,-1.527 h -0.4062 l 0.1537,3.3361 z"
       style="fill:#3e4095;fill-opacity:1;fill-rule:nonzero;stroke:none"
       id="path24" />
    <path
       d="m 249.438,42.9613 v -0.3852 h -6.2399 v 0.3852 h 0.5165 c 0.6044,0 1.0398,0.1715 1.3144,0.5103 0.1721,0.2247 0.2563,0.7599 0.2563,1.6092 v 9.1837 c 0,0.7171 -0.0473,1.1917 -0.1389,1.4198 -0.0734,0.1749 -0.2197,0.3249 -0.4433,0.4496 -0.3147,0.1678 -0.6444,0.2498 -0.9885,0.2498 h -0.5165 v 0.3855 h 6.2399 v -0.3855 h -0.5235 c -0.5933,0 -1.0253,-0.1713 -1.2966,-0.51 -0.1794,-0.2248 -0.2673,-0.76 -0.2673,-1.6092 v -9.1837 c 0,-0.7172 0.0479,-1.1917 0.1395,-1.4202 0.0694,-0.1746 0.2197,-0.3245 0.4504,-0.4495 0.3073,-0.1676 0.6299,-0.2498 0.974,-0.2498 z"
       style="fill:#3e4095;fill-opacity:1;fill-rule:nonzero;stroke:none"
       id="path26" />
    <path
       d="m 263.806,57.0903 c 1.8859,0 3.5226,-0.6993 4.9034,-2.0979 1.3839,-1.3986 2.0761,-3.1433 2.0761,-5.2378 0,-2.1549 -0.6956,-3.9425 -2.0909,-5.366 -1.3915,-1.4236 -3.0795,-2.1337 -5.0609,-2.1337 -1.9993,0 -3.68,0.6959 -5.0423,2.0838 -1.3623,1.3878 -2.0435,3.1824 -2.0435,5.3875 0,2.2513 0.7875,4.0887 2.3584,5.5123 1.366,1.2344 2.9991,1.8518 4.8997,1.8518 z m -0.2052,-0.7494 c -1.2963,0 -2.34,-0.4709 -3.1235,-1.4128 -0.9777,-1.1739 -1.4686,-2.89 -1.4686,-5.152 0,-2.3156 0.5054,-4.0995 1.5199,-5.3484 0.7801,-0.9491 1.8051,-1.4236 3.0832,-1.4236 1.3661,0 2.4903,0.521 3.3798,1.5594 0.8901,1.0417 1.3331,2.6793 1.3331,4.9201 0,2.4295 -0.4907,4.242 -1.4683,5.4337 -0.7838,0.949 -1.8678,1.4236 -3.2556,1.4236"
       style="fill:#3e4095;fill-opacity:1;fill-rule:nonzero;stroke:none"
       id="path28" />
    <path
       d="m 277.1668,56.7692 h 3.9147 l 8.924,-10.6575 v 8.1956 c 0,0.8742 -0.1026,1.4198 -0.3039,1.6376 -0.2676,0.2925 -0.6922,0.4388 -1.2705,0.4388 h -0.5127 v 0.3855 h 5.1193 v -0.3855 h -0.5201 c -0.6262,0 -1.0656,-0.182 -1.3295,-0.5457 -0.1573,-0.2248 -0.2378,-0.735 -0.2378,-1.5307 V 42.3476 h -0.3881 l -9.587,11.4316 V 45.038 c 0,-0.8742 0.0989,-1.4202 0.2931,-1.6376 0.2747,-0.2928 0.6993,-0.4391 1.2742,-0.4391 h 0.5201 v -0.3852 h -5.1196 v 0.3852 h 0.513 c 0.6296,0 1.0727,0.182 1.3366,0.546 0.1573,0.2248 0.2381,0.735 0.2381,1.5307 v 9.8688 c -0.4215,0.4816 -0.7436,0.7991 -0.9596,0.9524 -0.2196,0.1534 -0.5382,0.2963 -0.9595,0.4318 -0.2086,0.0606 -0.5235,0.0927 -0.9448,0.0927 z"
       style="fill:#3e4095;fill-opacity:1;fill-rule:nonzero;stroke:none"
       id="path30" />
    <path
       d="m 309.2074,47.3071 h -5.6432 l -0.974,-2.2229 c -0.2418,-0.5494 -0.3662,-0.9632 -0.3662,-1.2345 0,-0.214 0.1063,-0.4065 0.3186,-0.5706 0.2086,-0.1607 0.6664,-0.2676 1.366,-0.3178 v -0.3852 h -4.5921 v 0.3852 c 0.608,0.1035 0.9995,0.2393 1.1789,0.4068 0.3665,0.3353 0.769,1.0168 1.2121,2.0409 l 5.1231,11.6813 h 0.3625 l 5.0644,-11.8063 c 0.4068,-0.949 0.7764,-1.5627 1.1095,-1.8482 0.3336,-0.2817 0.7948,-0.4388 1.3915,-0.4745 v -0.3852 h -5.7419 v 0.3852 c 0.5789,0.0287 0.9706,0.1213 1.1758,0.2821 0.2047,0.1604 0.3036,0.3566 0.3036,0.5887 0,0.3067 -0.1428,0.792 -0.428,1.4556 z m -0.3297,0.7708 -2.4536,5.7262 -2.5195,-5.7262 z"
       style="fill:#3e4095;fill-opacity:1;fill-rule:nonzero;stroke:none"
       id="path32" />
    <path
       d="m 333.4329,46.4936 0.3517,-0.0749 -1.2523,-3.8426 h -11.2717 v 0.3852 h 0.546 c 0.6151,0 1.0544,0.1928 1.3181,0.5817 0.1502,0.2211 0.2236,0.735 0.2236,1.5378 v 9.1837 c 0,0.8847 -0.0989,1.4377 -0.3005,1.6591 -0.2783,0.3067 -0.6919,0.4601 -1.2412,0.4601 h -0.546 v 0.3855 h 6.5917 v -0.3855 c -0.7725,0.0073 -1.3147,-0.0607 -1.6297,-0.207 -0.3112,-0.1426 -0.5235,-0.3282 -0.6372,-0.5456 -0.1134,-0.2214 -0.1718,-0.7495 -0.1718,-1.5806 V 45.102 c 0,-0.5813 0.0584,-0.9773 0.1718,-1.195 0.0845,-0.15 0.2197,-0.2569 0.3991,-0.3283 0.1758,-0.0677 0.7362,-0.1035 1.6773,-0.1035 h 1.0621 c 1.1206,0 1.9041,0.0786 2.3545,0.239 0.4504,0.1607 0.8643,0.4459 1.2379,0.8527 0.3696,0.4067 0.7432,1.0491 1.1166,1.9267"
       style="fill:#3e4095;fill-opacity:1;fill-rule:nonzero;stroke:none"
       id="path34" />
    <g
       id="g36">
      <g
         id="g38"
         clip-path="url(#clipPath42)">
        <path
           d="m 98.2519,88.6414 c 1.2711,0.3146 2.6751,0.4719 4.212,0.4719 h 7.6496 c 0.9275,0 1.7096,0.3286 2.3471,0.9853 0.6375,0.6568 0.9564,1.4488 0.9564,2.3766 0,0.9272 -0.3189,1.7286 -0.9564,2.4046 -0.6375,0.6764 -1.4,1.0148 -2.289,1.0148 H 98.2519 Z m -8.0745,7.2532 v 6.8837 1.2294 h 19.0089 c 2.1637,0 4.028,-0.309 5.5928,-0.9272 1.5644,-0.618 2.8493,-1.4488 3.8539,-2.4917 1.0046,-1.0434 1.7385,-2.26 2.202,-3.6513 0.4637,-1.3907 0.6956,-2.859 0.6956,-4.4047 0,-1.4296 -0.2219,-2.8302 -0.6667,-4.2016 -0.4442,-1.3716 -1.1585,-2.5985 -2.1438,-3.6802 -0.9854,-1.0814 -2.2604,-1.9604 -3.8254,-2.6368 -1.5647,-0.676 -3.4676,-1.0139 -5.7084,-1.0139 h -7.8239 c -0.8884,0 -1.6228,-0.3478 -2.2022,-1.0434 C 98.5808,79.2612 98.2908,78.45 98.2908,77.5227 V 65.874 h -8.1134 v 6.8168 4.9476 z M 320.9406,85.4045 333.5165,65.874 H 323.78 l -8.4033,14.1985 -8.4033,-14.1985 h -9.7364 l 12.5181,19.5305 -12.576,18.6032 h 9.7359 l 8.4617,-14.0828 8.4614,14.0828 h 9.7365 z M 286.2255,65.874 v 38.1337 h 8.1136 V 65.874 Z m -5.216,9.3306 c 0,-1.4636 -0.2617,-2.8123 -0.7821,-4.0278 -0.5202,-1.2163 -1.2461,-2.2513 -2.1733,-3.1008 -0.927,-0.8495 -2.0206,-1.5075 -3.2746,-1.9701 -1.2546,-0.4626 -2.5982,-0.6956 -4.0275,-0.6956 -2.0863,0 -3.9699,0.6568 -5.6508,1.9706 -1.681,1.3136 -2.9322,3.1213 -3.6803,5.4477 l -7.012,21.7905 c -0.2994,0.9309 -0.6571,1.4487 -1.5072,1.4487 -1.1203,0 -1.6807,-0.7749 -1.6807,-2.3176 V 65.874 h -8.5192 v 28.5716 c 0,1.4678 0.2613,2.8108 0.7826,4.0277 0.5213,1.2167 1.2462,2.2507 2.1734,3.1003 0.9269,0.8498 2.01,1.508 3.2453,1.9706 1.2354,0.4621 2.5886,0.6956 4.0567,0.6956 2.0863,0 3.9711,-0.6584 5.6503,-1.9706 1.6795,-1.3127 2.9322,-3.1235 3.6802,-5.4476 l 7.0127,-21.7911 c 0.2993,-0.9286 0.7146,-1.4488 1.6803,-1.4488 1.0049,0 1.5072,0.773 1.5072,2.3182 v 28.1078 h 8.519 z m -43.5237,20.69 h -19.9945 c -0.8861,0 -1.6515,-0.3384 -2.289,-1.0148 -0.6375,-0.676 -0.9564,-1.4774 -0.9564,-2.4046 0,-0.9278 0.3005,-1.7212 0.8983,-2.3766 0.5978,-0.6559 1.4006,-0.9853 2.4052,-0.9853 h 19.9364 v -8.113 h -19.9945 c -0.8861,0 -1.6526,-0.3399 -2.289,-1.0145 -0.6361,-0.675 -0.9564,-1.5166 -0.9564,-2.5212 0,-0.9657 0.3189,-1.7866 0.9564,-2.463 0.6375,-0.6761 1.4199,-1.0139 2.3471,-1.0139 h 19.9364 V 65.874 h -19.0092 c -2.2773,0 -4.2029,0.3294 -5.7665,0.9851 -1.5636,0.6556 -2.8395,1.5358 -3.8248,2.6371 -0.9853,1.1009 -1.7013,2.3485 -2.1444,3.7383 -0.4428,1.3895 -0.6664,2.8202 -0.6664,4.2882 0,0.6957 0.0677,1.4395 0.2027,2.2315 0.1352,0.792 0.3688,1.5366 0.6956,2.2308 0.3274,0.6942 0.7532,1.3136 1.275,1.8547 0.5216,0.5412 1.1687,0.9465 1.9412,1.2172 -1.5452,0.7339 -2.609,1.8267 -3.1873,3.2743 -0.5786,1.4477 -0.8694,3.1587 -0.8694,5.1293 0,3.3611 1.0627,5.9593 3.1876,7.7947 2.1251,1.8352 5.1775,2.7525 9.1567,2.7525 h 19.0092 z M 149.4065,65.874 V 81.0003 H 134.2806 V 65.874 h -8.1136 v 38.1337 h 8.1136 V 89.1133 h 15.1259 v 14.8944 h 8.1136 V 65.874 Z"
           style="fill:url(#linearGradient48);fill-rule:evenodd;stroke:none"
           id="path50" />
      </g>
    </g>
    <g
       id="g52">
      <g
         id="g54">
        <g
           id="g56">
          <g
             id="g58"
             clip-path="url(#clipPath62)">
            <path
               d="m 32.9919,99.0213 c 0.0017,4.5303 2.0219,8.7698 5.1735,11.4063 0.6514,0.5451 2.1926,1.7725 3.0614,2.1668 -2.6008,-0.3416 -11.0356,-4.4787 -11.8905,-6.9919 -1.2475,-3.6661 -0.6639,-10.4151 0.6353,-13.788 -2.3562,2.6438 -2.945,7.5387 -2.9926,11.7992 -0.3313,-0.2305 -0.0714,-0.0139 -0.3265,-0.2946 -0.0165,-0.0181 -0.2143,-0.2803 -0.2393,-0.3174 -0.1355,-0.2047 -0.2466,-0.4366 -0.3688,-0.6614 -0.2724,-0.5017 -0.4691,-0.8563 -0.7098,-1.3643 -1.2801,-2.7037 -3.0035,-6.8111 -2.0426,-9.7517 2.2825,-6.9817 5.1565,-8.1751 6.4596,-10.1767 -4.4878,1.4468 -7.0467,7.6791 -7.5889,8.3013 -0.201,-4.4456 -0.2506,-11.5118 2.9803,-14.0703 1.9131,-1.5149 5.6183,-2.6003 8.1221,-3.2641 0.2186,-0.0582 0.4958,-0.1242 0.6786,-0.2039 0.4814,-0.2097 0.2756,-0.1133 0.5242,-0.3149 -5.5877,0.2115 -5.9619,1.2682 -9.0063,1.7314 1.3272,-2.4352 4.5729,-5.6908 6.6249,-7.2431 2.0112,-1.521 6.0982,-4.2312 9.2582,-4.8053 -0.1494,0.1897 -0.0839,0.114 -0.2764,0.2974 -2.3108,2.2011 -4.043,2.7419 -5.5763,6.196 1.8136,-0.2747 6.0475,-3.4569 7.7077,-4.741 1.0018,-0.775 1.6087,-0.9768 1.275,-2.3278 -0.5845,-2.3698 -1.4275,-4.0969 -2.4088,-6.0687 -1.7153,-3.4469 -1.4451,-1.9976 -0.5879,-6.3031 1.1956,1.3501 1.7963,4.2979 2.9137,5.7348 -0.131,-1.3465 -0.8643,-3.6185 -1.3167,-4.9369 -1.6146,-4.7018 -2.0112,-4.0203 -0.7209,-5.5978 1.6799,-2.0537 2.5555,-4.8093 3.5306,-7.2437 -0.0652,3.5195 -0.0799,7.0606 0.1636,10.5792 0.0864,1.2501 0.4597,3.2882 0.4881,4.1369 0.1406,-3.4506 0.2783,-6.7731 0.5445,-10.19 0.2489,-3.198 0.7671,-6.3065 1.0208,-9.3084 0.7279,1.4729 1.2736,15.9061 1.4315,18.8218 0.2457,-0.398 0.3257,-1.1481 0.3716,-1.6512 l 0.7067,-12.2188 c 0.3296,0.4448 1.3787,3.4935 1.7937,4.3799 2.5373,5.4178 2.6187,2.2821 0.5159,8.4231 -0.4303,1.2555 -1.1469,3.5022 -1.2719,4.8067 1.1203,-1.4451 1.7147,-4.3804 2.9143,-5.7365 0.1327,0.671 0.7161,3.4918 0.6463,3.9442 -0.0881,0.5686 -3.2207,5.6279 -3.8511,9.519 1.8482,1.5103 6.3374,5.1194 9.125,5.9658 -0.6166,-2.3559 -3.2205,-4.3957 -5.0054,-5.8034 -0.1877,-0.1479 -0.2449,-0.1743 -0.3972,-0.3024 l -0.3852,-0.3751 c 5.728,1.173 13.1956,7.102 15.8822,12.0484 -3.0322,-0.4626 -3.4446,-1.5245 -9.0051,-1.7314 1.1464,0.9303 6.8627,1.7147 9.4199,3.8602 3.1215,2.6195 3.0838,9.6095 2.8907,14.0021 -0.5425,-0.6387 -0.9402,-1.7876 -1.3907,-2.5436 -1.2651,-2.1237 -3.5929,-4.9246 -6.203,-5.7668 1.3073,2.0089 4.1664,3.1811 6.4584,10.1767 0.7181,2.1903 -0.1255,4.7355 -0.8367,6.815 -0.366,1.0701 -0.741,1.9531 -1.2056,2.9367 l -1.645,2.6385 c -0.0413,-4.2718 -0.6378,-9.1352 -2.9919,-11.8 0.8129,2.0984 1.2994,4.7256 1.2994,7.2068 0,1.8323 -0.0627,5.1417 -0.7118,6.7076 -0.9601,2.3159 -9.2126,6.5778 -11.8332,6.8561 2.0007,-0.8112 4.5144,-3.4052 5.6749,-5.2296 2.5883,-4.0683 2.9982,-8.8027 2.0693,-13.5714 -0.2015,-1.0347 -0.993,-2.8627 -0.7645,-3.5938 0.8524,-2.7255 1.6674,-4.3639 1.336,-7.6997 -0.383,-3.8549 -2.304,-6.8474 -4.9456,-9.0154 -0.4516,-0.3707 -0.7433,-0.6392 -1.2501,-0.9946 l -1.2263,-0.8218 c -0.013,0.0286 -0.0578,-0.0955 -0.0995,-0.0927 L 55.41,71.7426 c 1.3251,0.7339 3.4993,3.3302 4.5019,4.8515 2.0455,3.1022 2.5362,6.0936 2.0078,9.7339 -0.4167,-0.7583 -0.8478,-2.5251 -1.3121,-3.5252 -1.5024,-3.2366 -3.5456,-5.6664 -6.6399,-7.5203 -0.29,-1.8221 -1.205,-5.9811 -2.4035,-6.7748 -0.089,1.4006 -0.7557,8.1369 -0.5783,8.8781 0.0953,0.3974 1.3232,2.2085 1.6886,3.1635 0.4337,1.1324 0.8218,2.6767 0.4184,4.0241 -0.1318,-1.3737 -1.1063,-2.6811 -1.8907,-3.2483 -1.2954,-0.9371 -2.1351,-0.2338 -3.7573,-1.4207 -1.91,-1.3969 -4.0567,-4.1468 -3.511,-6.9239 0.8926,1.887 1.2101,3.0538 3.2564,3.6366 l -2.4332,-8.5669 c -0.8734,0.7614 -1.3944,2.2337 -1.7904,3.2885 -0.5496,1.4635 -0.6435,2.3462 -0.8929,3.9447 -2.0996,1.2444 -3.7349,2.7635 -5.0049,4.6649 -1.883,2.8205 -1.7478,3.7667 -2.9505,6.3797 -0.9542,-4.6409 0.9328,-8.8651 3.7349,-11.982 0.5207,-0.5792 0.7645,-0.8859 1.3555,-1.4143 l 1.203,-1.3475 c -0.4121,0.39 -0.8543,0.6054 -1.4006,0.9816 -1.3864,0.955 -2.4607,2.0004 -3.5158,3.3902 -2.2232,2.9282 -3.1334,6.9818 -2.3414,10.8029 0.2843,1.3725 0.8569,2.4488 1.1248,3.5586 0.1324,0.5491 -0.6653,2.7204 -0.8339,3.6116 -0.3178,1.679 -0.4536,3.4067 -0.453,5.0922"
               style="fill:url(#linearGradient68);fill-rule:evenodd;stroke:none"
               id="path70" />
          </g>
        </g>
        <g
           id="g72">
          <path
             d="m 43.1768,95.5077 c 2.0877,-0.7061 3.5586,-1.9752 4.6125,-3.3023 1.237,1.3671 2.3754,2.5866 4.7112,3.3009 -1.1523,1.6756 -1.6943,2.9826 -1.806,5.5128 -2.0185,-0.7492 -3.7879,-0.4498 -5.7767,-0.0431 -0.0031,-1.074 -0.1712,-2.101 -0.523,-3.0798 -0.3784,-1.0525 -0.8379,-1.6319 -1.218,-2.3885"
             style="fill:#f6f6f6;fill-opacity:1;fill-rule:evenodd;stroke:none"
             id="path74" />
          <path
             d="m 51.7521,104.9956 -0.1216,-0.0797 c -0.5388,-1.4346 -0.8297,-2.1623 -0.936,-3.8968 0.1117,-2.5302 0.6537,-3.8372 1.806,-5.5128 1.1378,-1.0273 0.3072,-0.6712 2.5665,-2.2683 l 0.3347,-0.2585 c 0.027,-0.0215 0.0763,-0.0615 0.1103,-0.0967 1.0009,-0.1026 1.7294,-0.1272 2.0665,0.6574 0.449,1.0454 -0.0188,1.7629 -0.6293,2.1084 -3.153,1.7838 -3.9048,4.4969 -2.5915,7.8701 0.7192,1.8473 -1.2359,2.861 -2.6056,1.4769"
             style="fill:#85b135;fill-opacity:1;fill-rule:evenodd;stroke:none"
             id="path76" />
          <path
             d="m 47.7893,92.2054 c -0.4005,-1.0165 -0.7056,-1.0151 -1.2251,-2.7176 -0.0519,-0.1701 -0.1058,-0.3637 -0.1752,-0.5352 -0.1573,-0.3883 -0.0355,-0.1585 -0.1942,-0.3739 0.2636,-1.1696 0.7863,-2.4982 2.3216,-1.7529 0.8833,0.4286 0.8441,1.8802 1.4142,2.9282 1.006,1.849 2.6067,3.0203 5.5814,3.1288 -0.034,0.0352 -0.0833,0.0752 -0.1103,0.0967 L 55.067,93.238 c -2.2593,1.5971 -1.4287,1.241 -2.5665,2.2683 -2.3358,-0.7143 -3.4742,-1.9338 -4.7112,-3.3009"
             style="fill:#f8951d;fill-opacity:1;fill-rule:evenodd;stroke:none"
             id="path78" />
          <path
             d="m 46.1948,88.5787 c 0.1587,0.2154 0.0369,-0.0144 0.1942,0.3739 0.0694,0.1715 0.1233,0.3651 0.1752,0.5352 0.5195,1.7025 0.8246,1.7011 1.2251,2.7176 -1.0539,1.3271 -2.5248,2.5962 -4.6125,3.3023 -1.7074,0.4167 -2.1892,0.2645 -3.9524,0.3475 -0.7265,-0.2517 -1.0964,-0.3245 -1.2813,-1.0751 -0.8297,-3.3682 3.7029,-0.5596 6.7612,-3.5859 0.6387,-0.6318 1.0324,-1.5789 1.4905,-2.6155"
             style="fill:#d51b66;fill-opacity:1;fill-rule:evenodd;stroke:none"
             id="path80" />
          <path
             d="m 39.2244,95.8552 c 1.7632,-0.083 2.245,0.0692 3.9524,-0.3475 0.3801,0.7566 0.8396,1.336 1.218,2.3885 0.3518,0.9788 0.5199,2.0058 0.523,3.0798 -0.1562,2.0438 -0.4167,2.2539 -0.9051,3.9011 l -0.1792,0.1709 c -0.3775,0.4144 -0.6412,0.7472 -1.4984,0.61 -2.2645,-0.3625 -0.5961,-3.1328 -0.4915,-4.1281 0.3926,-3.7377 -2.2864,-5.2738 -2.6192,-5.6747"
             style="fill:#2e3192;fill-opacity:1;fill-rule:evenodd;stroke:none"
             id="path82" />
          <path
             d="m 44.0127,104.8771 c 0.4884,-1.6472 0.7489,-1.8573 0.9051,-3.9011 1.9888,-0.4067 3.7582,-0.7061 5.7767,0.0431 0.1063,1.7345 0.3972,2.4622 0.936,3.8968 l 0.1216,0.0797 -0.1216,-0.0797 c -1.1032,-0.7285 -2.0165,-1.3827 -3.8205,-1.3827 -1.8553,-3e-4 -2.6555,0.6681 -3.7973,1.3439 l -0.1792,0.1709 z"
             style="fill:#006fb9;fill-opacity:1;fill-rule:evenodd;stroke:none"
             id="path84" />
          <path
             d="m 55.9806,88.0679 c 1.2058,3.0796 -3.5751,4.805 -4.6287,1.8142 -1.1585,-3.2888 3.4988,-4.7007 4.6287,-1.8142"
             style="fill:#f8951d;fill-opacity:1;fill-rule:evenodd;stroke:none"
             id="path86" />
          <path
             d="m 35.9498,99.4927 c 0.7625,-3.0002 5.4871,-2.1453 4.7804,1.1846 -0.6778,3.194 -5.5982,2.0344 -4.7804,-1.1846"
             style="fill:#2e3192;fill-opacity:1;fill-rule:evenodd;stroke:none"
             id="path88" />
          <path
             d="m 39.5447,88.4143 c 0.6545,-2.9075 5.3748,-2.3831 4.8393,1.029 -0.1981,1.2634 -1.453,2.2416 -2.9653,1.9474 -1.1392,-0.2217 -2.2008,-1.5239 -1.874,-2.9764"
             style="fill:#d51b66;fill-opacity:1;fill-rule:evenodd;stroke:none"
             id="path90" />
          <path
             d="m 59.5647,99.1466 c 1.2898,3.0086 -3.4073,4.8906 -4.536,1.9468 -1.2818,-3.3429 3.3579,-4.6956 4.536,-1.9468"
             style="fill:#85b135;fill-opacity:1;fill-rule:evenodd;stroke:none"
             id="path92" />
          <path
             d="m 46.9219,109.2563 c -2.797,-1.004 -1.5545,-5.7192 1.7677,-4.5847 2.8786,0.983 1.5046,5.7594 -1.7677,4.5847"
             style="fill:#006fb9;fill-opacity:1;fill-rule:evenodd;stroke:none"
             id="path94" />
        </g>
      </g>
      <g
         id="g96">
        <path
           d="m 22.1091,68.7617 c 0,0 0.0252,-1.7331 1.1092,-2.7201 1.084,-0.9868 2.55,-1.2351 2.55,-1.2351 0,0 -0.1184,2.1016 -1.6982,3.1816 -1.5795,1.0803 -1.961,0.7736 -1.961,0.7736"
           style="fill:#fcb72e;fill-opacity:1;fill-rule:evenodd;stroke:none"
           id="path98" />
        <path
           d="m 22.3481,63.8518 c 0,0 1.0241,-1.6642 3.0492,-1.6668 2.0253,-0.0022 2.323,0.3606 2.323,0.3606 0,0 -0.8269,1.2764 -2.2879,1.5506 -1.4609,0.2744 -3.0843,-0.2444 -3.0843,-0.2444"
           style="fill:#fcb72e;fill-opacity:1;fill-rule:evenodd;stroke:none"
           id="path100" />
        <path
           d="m 26.5156,68.0655 c 0,0 -0.5758,-1.9851 -0.1355,-3.094 0.4399,-1.1089 0.4969,-1.0928 1.0615,-1.7524 0.5647,-0.6599 0.5641,-0.5921 0.5641,-0.5921 0,0 0.5208,1.7659 0.186,2.7876 -0.3345,1.0213 -1.6761,2.6509 -1.6761,2.6509"
           style="fill:#fcb72e;fill-opacity:1;fill-rule:evenodd;stroke:none"
           id="path102" />
        <path
           d="m 25.3882,60.7689 c 0,0 1.4528,-1.3261 3.2054,-1.1963 1.753,0.1296 2.24,0.7807 2.24,0.7807 0,0 -1.3867,1.0304 -2.6584,1.1613 -1.2716,0.131 -2.787,-0.7457 -2.787,-0.7457"
           style="fill:#fcb72e;fill-opacity:1;fill-rule:evenodd;stroke:none"
           id="path104" />
        <path
           d="m 29.0302,65.4188 c 0,0 -0.4561,-1.4941 -0.0751,-2.484 0.3812,-0.9901 1.5196,-2.2825 1.7727,-2.5064 0.2532,-0.2242 0.4454,1.1577 0.184,2.1385 -0.2613,0.9808 -0.6117,1.5602 -1.0338,2.0443 -0.4223,0.4845 -0.8478,0.8076 -0.8478,0.8076"
           style="fill:#fcb72e;fill-opacity:1;fill-rule:evenodd;stroke:none"
           id="path106" />
        <path
           d="m 29.0511,58.2707 c 0,0 1.6345,-0.8609 3.0286,-0.7716 1.3941,0.089 2.1078,0.9408 2.1078,0.9408 0,0 -1.7396,0.9482 -3.0611,0.8858 -1.3215,-0.0623 -2.0753,-1.055 -2.0753,-1.055"
           style="fill:#fcb72e;fill-opacity:1;fill-rule:evenodd;stroke:none"
           id="path108" />
        <path
           d="m 31.7849,63.1179 c 0,0 -0.392,-1.2226 0.4833,-2.6025 0.875,-1.3799 1.5372,-1.4499 1.8754,-1.8782 0.3382,-0.4283 0.3634,1.4306 -0.1434,2.4712 -0.5069,1.0404 -2.2153,2.0095 -2.2153,2.0095"
           style="fill:#fcb72e;fill-opacity:1;fill-rule:evenodd;stroke:none"
           id="path110" />
        <path
           d="m 32.8153,56.2674 c 0,0 1.5355,-0.8824 2.8598,-0.591 1.3241,0.2911 2.1926,1.2487 2.1926,1.2487 0,0 -1.5601,0.7523 -2.5948,0.6361 -1.0346,-0.116 -2.4576,-1.2938 -2.4576,-1.2938"
           style="fill:#fcb72e;fill-opacity:1;fill-rule:evenodd;stroke:none"
           id="path112" />
        <path
           d="m 34.9024,61.196 c 0,0 0.1851,-2.0335 1.0908,-2.8924 0.9054,-0.8587 2.0239,-1.2308 2.0239,-1.2308 0,0 0.0428,1.6664 -1.0542,2.8717 -1.0967,1.2056 -2.0605,1.2515 -2.0605,1.2515"
           style="fill:#fcb72e;fill-opacity:1;fill-rule:evenodd;stroke:none"
           id="path114" />
        <path
           d="m 36.6625,54.7611 c 0,0 1.5222,-0.5967 2.6793,-0.2602 1.1571,0.3362 2.393,1.4885 2.393,1.4885 0,0 -1.6886,0.7894 -2.708,0.5017 -1.0196,-0.2877 -2.3643,-1.73 -2.3643,-1.73"
           style="fill:#fcb72e;fill-opacity:1;fill-rule:evenodd;stroke:none"
           id="path116" />
        <path
           d="m 38.2433,60.2926 c 0,0 -0.1326,-0.9465 0.383,-2.0007 0.5153,-1.0539 1.1846,-1.4258 1.9585,-1.796 0.7735,-0.3705 0.9646,-0.5145 0.9646,-0.5145 0,0 -0.392,2.3029 -1.2912,3.2 -0.8994,0.8972 -2.0149,1.1112 -2.0149,1.1112"
           style="fill:#fcb72e;fill-opacity:1;fill-rule:evenodd;stroke:none"
           id="path118" />
      </g>
      <g
         id="g120">
        <path
           d="m 73.9556,68.7617 c 0,0 -0.0255,-1.7331 -1.1095,-2.7201 -1.0836,-0.9868 -2.5497,-1.2351 -2.5497,-1.2351 0,0 0.1185,2.1016 1.6979,3.1816 1.5795,1.0803 1.9613,0.7736 1.9613,0.7736"
           style="fill:#fcb72e;fill-opacity:1;fill-rule:evenodd;stroke:none"
           id="path122" />
        <path
           d="m 73.7167,63.8518 c 0,0 -1.0242,-1.6642 -3.0496,-1.6668 -2.025,-0.0022 -2.3229,0.3606 -2.3229,0.3606 0,0 0.8271,1.2764 2.2881,1.5506 1.461,0.2744 3.0844,-0.2444 3.0844,-0.2444"
           style="fill:#fcb72e;fill-opacity:1;fill-rule:evenodd;stroke:none"
           id="path124" />
        <path
           d="m 69.5489,68.0655 c 0,0 0.5757,-1.9851 0.1358,-3.094 -0.44,-1.1089 -0.4972,-1.0928 -1.0619,-1.7524 -0.5647,-0.6599 -0.5638,-0.5921 -0.5638,-0.5921 0,0 -0.5207,1.7659 -0.1862,2.7876 0.3347,1.0213 1.6761,2.6509 1.6761,2.6509"
           style="fill:#fcb72e;fill-opacity:1;fill-rule:evenodd;stroke:none"
           id="path126" />
        <path
           d="m 70.6762,60.7689 c 0,0 -1.4525,-1.3261 -3.2054,-1.1963 -1.7527,0.1296 -2.2397,0.7807 -2.2397,0.7807 0,0 1.3865,1.0304 2.6581,1.1613 1.2719,0.131 2.787,-0.7457 2.787,-0.7457"
           style="fill:#fcb72e;fill-opacity:1;fill-rule:evenodd;stroke:none"
           id="path128" />
        <path
           d="m 67.0343,65.4188 c 0,0 0.4563,-1.4941 0.0751,-2.484 -0.3813,-0.9901 -1.5197,-2.2825 -1.7728,-2.5064 -0.2529,-0.2242 -0.4453,1.1577 -0.1837,2.1385 0.2614,0.9808 0.6117,1.5602 1.0338,2.0443 0.4221,0.4845 0.8476,0.8076 0.8476,0.8076"
           style="fill:#fcb72e;fill-opacity:1;fill-rule:evenodd;stroke:none"
           id="path130" />
        <path
           d="m 67.0133,58.2707 c 0,0 -1.6345,-0.8609 -3.0285,-0.7716 -1.3938,0.089 -2.1076,0.9408 -2.1076,0.9408 0,0 1.7393,0.9482 3.0608,0.8858 1.3216,-0.0623 2.0753,-1.055 2.0753,-1.055"
           style="fill:#fcb72e;fill-opacity:1;fill-rule:evenodd;stroke:none"
           id="path132" />
        <path
           d="m 64.2798,63.1179 c 0,0 0.3918,-1.2226 -0.4833,-2.6025 -0.8753,-1.3799 -1.5372,-1.4499 -1.8754,-1.8782 -0.3381,-0.4283 -0.3637,1.4306 0.1432,2.4712 0.5068,1.0404 2.2155,2.0095 2.2155,2.0095"
           style="fill:#fcb72e;fill-opacity:1;fill-rule:evenodd;stroke:none"
           id="path134" />
        <path
           d="m 63.2492,56.2674 c 0,0 -1.5356,-0.8824 -2.8596,-0.591 -1.3244,0.2911 -2.1929,1.2487 -2.1929,1.2487 0,0 1.5605,0.7523 2.5951,0.6361 1.0344,-0.116 2.4574,-1.2938 2.4574,-1.2938"
           style="fill:#fcb72e;fill-opacity:1;fill-rule:evenodd;stroke:none"
           id="path136" />
        <path
           d="m 61.162,61.196 c 0,0 -0.1851,-2.0335 -1.0905,-2.8924 -0.9056,-0.8587 -2.0239,-1.2308 -2.0239,-1.2308 0,0 -0.0431,1.6664 1.0539,2.8717 1.097,1.2056 2.0605,1.2515 2.0605,1.2515"
           style="fill:#fcb72e;fill-opacity:1;fill-rule:evenodd;stroke:none"
           id="path138" />
        <path
           d="m 59.402,54.7611 c 0,0 -1.5219,-0.5967 -2.679,-0.2602 -1.1571,0.3362 -2.393,1.4885 -2.393,1.4885 0,0 1.6886,0.7894 2.7079,0.5017 1.0193,-0.2877 2.3641,-1.73 2.3641,-1.73"
           style="fill:#fcb72e;fill-opacity:1;fill-rule:evenodd;stroke:none"
           id="path140" />
        <path
           d="m 57.8211,60.2926 c 0,0 0.1329,-0.9465 -0.3827,-2.0007 -0.5156,-1.0539 -1.1849,-1.4258 -1.9584,-1.796 -0.7736,-0.3705 -0.9647,-0.5145 -0.9647,-0.5145 0,0 0.3918,2.3029 1.2912,3.2 0.8992,0.8972 2.0146,1.1112 2.0146,1.1112"
           style="fill:#fcb72e;fill-opacity:1;fill-rule:evenodd;stroke:none"
           id="path142" />
      </g>
    </g>
    <g
       id="g144">
      <path
         d="m 195.3952,70.7043 0.0967,0.3452 c -0.5576,0.1182 -0.6066,0.0213 -1.0964,-0.2301 l -1.0996,-0.6421 c -0.1925,-0.1066 -0.3512,-0.102 -0.572,-0.1743 -0.294,-0.0961 -0.7299,-0.4459 -0.9638,-0.4459 -0.3169,0 -0.0301,-0.0255 -0.2486,0.0828 0.1508,0.4172 0.2004,0.0048 0.3478,0.7341 0.1769,0.8771 0.0346,0.3229 0.0717,0.8357 0.009,0.1259 0.2169,1.1551 0.4193,1.406 l 1.599,0.8886 c 0.3552,0.1389 0.3949,0.2041 0.5601,0.5211 0.2055,0.3945 0.1026,0.5144 0.485,0.2585 v 0.3316 h 0.2486 c 0.0423,0.3855 0.01,0.1097 0.0927,0.239 l 0.4879,0.5074 c 0.2196,-0.0885 0.1547,0.1706 0.1658,-0.3317 0.2653,0.1778 0.0581,0.1361 0.4147,0.1659 0.0383,0.4603 0.2613,0.8183 0.7464,0.8294 v 0.2486 c 0.2024,-0.1137 0.1533,-0.0828 0.4974,-0.0828 0.3348,0 0.036,-0.0153 0.1661,0.0828 l -0.1791,-0.4014 c -0.0859,-0.1412 -0.112,-0.2534 -0.1528,-0.4278 0.1483,-0.1561 0.343,-0.3512 0.5805,-0.4147 0.4423,0.2963 0.4499,0.9854 0.7118,1.5273 l 0.087,0.1619 c 0.006,0.0111 0.019,0.0357 0.0307,0.0524 0,-0.1292 -0.0236,-0.4373 -0.0168,-0.5309 l 0.0315,-0.1474 c 0.003,-0.0127 0.0128,-0.0351 0.0156,-0.0479 0.0632,-0.3093 -0.0301,-0.3637 -0.0734,-0.733 -0.0805,-0.6857 0.2514,0.1545 0.0482,-1.1946 -0.1185,-0.7877 -2.2652,-3.8165 -3.2395,-3.8976 0.089,0.3818 0.1659,0.2262 0.1659,0.7464 z m 0.5114,0.2625 -0.0246,0.0246 c 0.001,-0.0014 0.0164,-0.0328 0.0246,-0.0246 z m 0.0828,0.0827 -0.0247,0.025 c 0.002,-0.0017 0.0165,-0.0332 0.0247,-0.025 z m 0.083,0.0831 -0.0246,0.0247 c 0.001,-0.0015 0.0164,-0.0329 0.0246,-0.0247 z m -22.1417,3.4829 c 0.0295,0.3569 -0.0235,0.1007 0.2693,0.5599 l 0.311,-0.7257 c -0.1664,-0.502 -0.0587,0.3484 -0.1806,-0.4762 -0.0878,-0.5961 -0.2528,-0.8663 -0.3804,-1.3675 -0.1037,-0.407 -0.0541,-0.5612 -0.434,-0.5612 -0.2446,0 -0.4082,0.0794 -0.5116,0.2353 -0.3878,0.5856 -0.0476,0.9323 0.01,1.1015 0.1925,0.5701 -0.2222,0.0128 0.005,0.9853 0.6261,0 0.5385,0.0661 0.7262,0.1769 0.1139,0.0675 -0.252,0.023 0.1859,0.0717 z m -0.4147,-0.3316 0.0247,0.0246 c -0.002,-0.0014 -0.0329,-0.0164 -0.0247,-0.0246 z m 23.3028,1.9074 0.0247,-0.0247 c -0.002,0.0015 -0.0329,0.0165 -0.0247,0.0247 z m -1.5066,0.0692 c -0.078,0.1054 0.6208,0.4787 0.7602,0.5113 z m -0.9814,0.0966 c 0.3853,-0.032 0.1452,0.089 0.332,-0.1658 -0.2291,0.0533 -0.1871,0.04 -0.332,0.1658 z m -0.4974,0 c 0.0977,0.2625 -0.18,0.1188 0.2488,0.1659 l -0.0887,-0.0771 c -0.0459,-0.0295 -0.1349,-0.0559 -0.1601,-0.0888 z m -0.1659,0.1659 0.0247,-0.0247 c -0.002,0.0014 -0.0329,0.0164 -0.0247,0.0247 z m -0.2489,0 0.025,-0.0247 c -0.002,0.0014 -0.0332,0.0164 -0.025,0.0247 z m 1.4928,0.1658 V 76.523 h -0.3317 c 0.1874,0.2556 -0.0538,0.1329 0.3317,0.1658 z m -0.7464,-0.0831 c 0.0882,0.0882 0.3147,-0.1315 0.0924,-0.0431 -0.002,9e-4 -0.2313,-0.0955 -0.0924,0.0431 z m 0.8294,0.0831 0.0247,-0.0247 c -0.002,0.0017 -0.0329,0.0165 -0.0247,0.0247 z m -3.9807,0.083 c 0.1602,0.1072 0.2869,0.2214 0.4822,0.2005 0.6061,-0.0655 -0.0989,-0.2297 0.5919,-0.2007 0.5326,0.0221 0.1556,0.2817 0.5899,0.0958 0.3886,-0.1667 -0.089,-0.0434 0.2942,-0.2095 0.0187,-0.0082 0.0417,-0.0162 0.061,-0.0227 0.1241,-0.0402 0.0861,-0.0263 0.2199,-0.0295 v -0.1658 c -0.7634,0.0638 -0.424,-0.07 -1.0896,0.0723 -0.4349,0.093 -0.3841,-0.0405 -0.8598,0.1355 -0.0107,0.004 -0.1255,0.0524 -0.1471,0.0618 -0.0176,0.0074 -0.0629,0.0278 -0.076,0.0337 z m 7.2839,0.6495 c -0.0133,0.0411 0.216,0.083 0.2625,0.0969 -0.0306,0.3691 -0.0433,0.5811 -0.3654,0.7172 l -0.6295,0.1119 c 0.1131,0.2056 -0.1154,0.112 0.161,0.2489 0.3024,0.1497 -0.003,0.0298 0.4195,-0.083 0.2044,0.3055 0.2409,0.2471 0.3317,0.4977 0.4127,-0.0346 0.9388,-0.2032 1.1894,-0.5626 0.01,-0.0145 0.0241,-0.0363 0.0334,-0.0502 0.009,-0.0133 0.0244,-0.0343 0.0323,-0.0468 0.1307,-0.2117 0.0457,-0.1675 0.0306,-0.3478 -0.0232,-0.2769 0.1384,-0.394 0.207,-0.6514 -0.4791,0.04 -0.1378,0.1128 -0.5806,0.4978 -0.46,-0.3082 -0.1343,-0.3456 -0.358,-0.5074 -0.2579,-0.1871 -0.2724,0.0025 -0.3033,0.0107 -0.318,0.0834 -0.2041,0.0814 -0.3339,-0.0011 z m -6.6203,0.5113 c 0.0882,0.0882 0.3144,-0.1315 0.0924,-0.0431 -0.002,9e-4 -0.2313,-0.0958 -0.0924,0.0431 z m -0.4977,0.2489 c 0.3041,0.0944 -0.1225,0.0233 0.2488,-0.2489 -0.0915,-0.1281 -0.0606,-0.1386 -0.161,0.0136 -0.1621,0.2467 -0.1494,0.0958 -0.0878,0.2353 z m 5.2245,0.0831 v -0.1661 h -0.2489 c 0.131,0.1882 0.0159,0.0969 0.2489,0.1661 z m -7.1317,-0.0831 c -0.2395,0.2393 0.2393,-0.2392 0,0 z m 7.4633,0.0831 c -0.2777,0.2503 0.4108,0.0847 0.4148,0.0827 l -0.2192,-0.0402 c -0.008,6e-4 -0.0348,0.0034 -0.0433,0.0034 l -0.1163,-0.0292 c -0.005,-0.0017 -0.0243,-0.0105 -0.036,-0.0167 z m 3.3172,0.0827 c 0.0799,0.1092 -0.0188,0.0029 0.1156,0.1333 l 0.087,0.0788 c 0.009,0.0079 0.0315,0.0238 0.0462,0.0368 0.1579,-0.1128 0.15,-0.0683 -0.2488,-0.2489 z m -4.4779,0.3317 0.0246,-0.0247 c -0.002,0.0017 -0.0329,0.0165 -0.0246,0.0247 z m 1.4927,0.083 0.0246,-0.0246 c -0.002,0.0014 -0.0331,0.0164 -0.0246,0.0246 z m -0.4978,0 0.025,-0.0246 c -0.002,0.0014 -0.0332,0.0164 -0.025,0.0246 z m -1.4096,-0.2488 c 0.0873,-0.3269 0.009,-0.0077 0.1193,-0.2954 0.0703,-0.1834 0.0536,-0.2101 0.1293,-0.3679 -0.1971,-0.1321 -0.0862,-0.1004 -0.3317,-0.1659 0.1179,0.2546 0.008,0.2101 0,0.5806 -0.5403,-0.1443 0.0482,-0.7818 -0.4975,-0.8295 0.1726,0.3598 0.0261,0.5219 0.0258,0.5222 -0.1378,0.5071 -0.015,-0.2821 -0.0473,0.1494 l 0.0433,0.2069 c 0.1211,0.4056 0.007,0.3322 0.2271,0.4484 0.3217,0.1701 -0.1213,-0.0963 0.233,-0.1003 0.2622,-0.0031 -0.0479,-0.0139 0.1511,0.0346 0.0473,0.0116 0.0122,0.0598 0.2792,0.0657 -0.1545,-0.2307 -0.0354,-0.1612 -0.3316,-0.2488 z m -6.3026,0.4147 c 0,0.212 0.1312,0.0133 0.0493,0 -0.001,-3e-4 -0.0493,-0.2316 -0.0493,0 z m 9.0391,0.1658 V 78.762 c -0.2942,0 -0.5054,-0.0348 -0.4507,0.228 0.0544,0.261 0.2784,0.144 0.4507,0.1037 z m -3.0682,-0.0828 c 0.005,0.0675 0.1559,0.3816 0.1083,0.0777 -6e-4,-0.0028 -0.0165,-0.0292 -0.0227,-0.0346 -0.006,-0.0054 -0.108,-0.3175 -0.0856,-0.0431 z m 0.2486,0.0828 c 0.1202,0.4499 0.01,0.1658 0.6636,0.1658 0.3226,0 0.007,-0.0788 0.2574,0.1574 0.0105,0.0099 0.03,0.036 0.0385,0.0445 0.008,0.0085 0.0227,0.032 0.0357,0.047 -0.1788,-0.6704 -0.7211,-0.1057 -0.9952,-0.4147 z m 1.5758,0.1658 c 0.0683,0.3223 0.0683,0.0924 0,0.4147 0.176,-0.1944 0.1088,-0.1031 0.1658,-0.083 l 0.0967,-0.0689 c -0.009,-0.0187 -0.2608,-0.2585 -0.2625,-0.2628 z m -8.4586,1.078 c 0.3197,-0.0266 0.3265,-0.0827 0.7461,-0.0827 0.1182,-0.5074 0.464,-0.4198 1.1523,-1.1702 0.189,-0.206 0.2188,-0.2557 0.5062,-0.3226 -0.1054,-0.2202 -0.0754,-0.0887 -0.0827,-0.4147 h 0.3316 c 0.042,-0.5042 0.0862,-0.3132 0.3317,-0.4147 0,-0.3033 -0.0199,-0.6165 -0.0701,-0.7086 -0.1037,-0.19 0.1061,-0.0584 -0.1862,-0.1599 -0.0995,-0.0346 -0.0839,-0.0193 -0.131,-0.0108 -0.1201,0.0213 -0.8441,0.5599 -1.0315,1.0361 -0.2619,0.6647 -0.2066,0.3518 -0.4087,0.7523 l -0.1715,0.326 c -0.514,0.6984 -0.7356,0.6959 -0.9862,1.1698 z m 2.156,-1.5755 c -0.008,-0.0082 0.0247,-0.013 0.0247,-0.0246 z m 4.3951,1.8244 v -0.1658 c -0.6752,-0.074 -0.4019,-0.8651 -0.3189,-0.9913 0.009,-0.0139 0.1131,-0.1151 0.1531,-0.1698 -0.464,-0.2185 -0.1749,0.0715 -0.381,-0.5176 l -0.5312,-0.9751 -0.7786,0.1497 c -0.0111,0.0014 -0.0341,0.0059 -0.0451,0.0073 l -0.0955,0.0136 c -0.0222,0.0026 -0.1183,-0.009 -0.224,0.0244 -0.4561,0.1449 0.1029,-0.0694 -0.2656,0.5491 -0.008,0.0128 -0.138,0.1548 -0.1355,0.4221 0.005,0.5286 0.1664,0.3265 0.6321,0.3265 0.0332,0.3997 0.0579,0.2801 0.3153,0.4312 0.4198,0.2469 0.1683,0.2687 0.572,0.589 0.1729,0.1372 0.0363,-0.0181 0.2344,0.1803 0.2466,0.2472 0.1086,0.2659 0.3711,0.4581 0.2582,-0.1865 0.0119,-0.2911 0.4974,-0.3317 z m -11.1951,0.9953 c 0.2231,-0.1636 0.4215,-0.5868 0.4975,-0.9122 -0.2716,-0.182 -0.1154,-0.2172 -0.4975,-0.2489 -0.1797,0.3745 -0.1797,0.7866 0,1.1611 z m 12.7709,0.3316 c 0.2381,-0.1746 0.1656,-0.3892 0.2486,-0.7463 -0.4541,0.0961 -0.3396,0.0581 -0.2486,-0.3317 -0.4121,0.0343 -0.3319,0.0777 -0.3319,0.4975 -0.3223,-0.0683 -0.0921,-0.0683 -0.4144,0 0.3923,0.3722 0.5164,-0.0542 0.7463,0.5805 z m -1.9074,-0.2489 0.0247,-0.0246 c -0.002,0.0017 -0.0329,0.0164 -0.0247,0.0246 z m 0.1658,0.2489 0.0247,-0.0246 c -0.001,0.0014 -0.0329,0.0164 -0.0247,0.0246 z m 1.4097,0.0828 c 0,0.2123 0.1315,0.0133 0.0493,0 -8e-4,0 -0.0493,-0.2313 -0.0493,0 z m -0.4144,0 c 0.007,0.0337 0.2134,0.1905 0.1374,-0.0567 -0.0657,-0.214 0.1696,-0.0635 -0.0317,-0.0119 -0.0264,0.0068 -0.1423,-0.093 -0.1057,0.0686 z m 0.5802,0.2489 0.025,-0.0247 c -0.002,0.0014 -0.0332,0.0165 -0.025,0.0247 z m -0.4144,0 0.0246,-0.0247 c -0.002,0.0014 -0.0328,0.0165 -0.0246,0.0247 z m 0.3316,0.1658 0.0247,-0.0247 c -0.002,0.0017 -0.0329,0.0165 -0.0247,0.0247 z m 0.1659,0.0831 0.0246,-0.025 c -0.001,0.0017 -0.0329,0.0167 -0.0246,0.025 z m -0.7464,-0.2489 v 0.2489 h 0.2489 c -0.146,-0.2759 0.017,-0.2211 -0.2489,-0.2489 z m 0.5805,0.5805 h 0.1659 v -0.2489 c -0.3178,0.2208 -0.0349,-3e-4 -0.1659,0.2489 z m -0.2488,0.1658 -0.0176,0.0542 c 0.0173,0.18 -0.0811,0.1292 0.0133,0.0059 0.0678,-0.0881 0.1664,-0.254 0.004,-0.0601 z m -0.7464,0.0831 c 0.2991,-0.0799 0.2219,-0.0077 0.2489,-0.3319 -0.2421,0.1774 -0.1015,0.0532 -0.2489,0.3319 z m 0.4978,0.0828 c -0.1423,-0.0176 -0.1174,0.2446 -0.006,0.1105 0,0 0.003,-0.0071 0.003,-0.0076 z m -0.2489,0 c -0.3212,0.1298 -0.0389,-0.0335 -0.2344,0.267 -0.2254,0.3461 -0.1866,0.8671 -0.0145,1.2257 0.7498,-0.1746 0.2095,-0.7013 0.2228,-1.0661 0.0173,-0.4743 0.1698,-0.0788 0.0261,-0.4266 z m -3.4002,1.4927 c 0.007,0.2985 -0.0309,0.3339 0.2058,0.4422 0.1109,0.051 0.2634,0.0184 0.3748,-0.0275 -0.188,-0.3917 -0.0678,-0.5233 -0.5806,-0.4147 z m 2.9855,1.2438 0.0249,-0.0246 c -0.002,0.0017 -0.0332,0.0164 -0.0249,0.0246 z m -0.0828,0.0831 c -0.1137,0.2018 -0.2194,0.7872 0.2486,0.9122 -0.0184,-0.8255 -0.0482,-0.8314 -0.2486,-0.9122 z m -0.2489,2.4877 c 0.2478,-0.3699 0.1899,-0.3753 0.0139,-0.6812 -0.0768,-0.1329 -0.0689,-0.0998 -0.1018,-0.1497 -0.1581,-0.2372 -0.0725,-0.4566 -0.1998,-0.7027 l -0.2234,-0.3597 c -0.1732,-0.2449 -0.1936,-0.049 -0.2352,-0.4286 -0.4828,-0.0402 -0.4162,-0.2766 -0.8292,0 -0.1131,-0.4844 -0.3209,-0.3254 -0.644,-0.5303 -0.0938,-0.0596 -0.0907,0.2236 -0.1023,-0.2991 -0.2549,0.1868 -0.1338,-0.0533 -0.1662,0.3319 -0.515,0 -0.0257,0.1276 -0.4189,-0.0034 -0.2299,-0.0765 -0.1423,-0.1332 -0.4932,-0.1624 -0.0151,-0.6843 -0.6061,-0.5939 0.5485,-1.525 0.3112,-0.2509 0.4467,-0.834 0.4467,-1.2946 0,-0.4711 -0.239,-0.4819 -0.5082,-0.6528 -0.1086,-0.0689 -0.0806,-0.0491 -0.144,-0.1046 l -0.5089,-0.4867 c 0,0.337 -0.0275,0.267 0.0831,0.4977 -0.6412,0.1494 -0.6117,0.7322 -1.2439,0.7464 v 0.2486 h -0.3319 c 0,-0.5358 -0.2086,-0.7634 -0.2486,-1.2439 0.1701,-0.18 0.2999,-0.1442 0.3765,-0.4864 0.0408,-0.1834 -0.1543,-0.0669 0.1386,-0.3197 l 0.3597,-0.2262 c 0.1142,-0.0814 0.2327,-0.1735 0.3081,-0.2781 l 0.3098,-1.2603 c -1.3994,0.7404 -0.5882,0.9663 -1.3705,1.9468 -0.1675,0.2098 -0.0244,0.1389 -0.288,0.2092 0.005,0.2475 0.0402,0.3016 0.0445,0.4295 0.006,0.1786 -0.0261,0.1678 0.005,0.3654 0.1015,0.6414 -0.1585,0.936 -0.3147,1.5111 -0.0776,0.2863 -0.1717,0.5134 -0.3985,0.6795 -0.0363,-0.3314 0.0232,-0.1191 -0.1128,-0.3016 -0.1922,-0.258 -0.4615,-0.3189 -0.5344,0.045 -0.0507,0.254 -0.0272,0.5848 -0.206,0.8958 -0.2322,0.4042 -0.4893,0.2531 -0.6886,0.7214 -0.0788,0.1848 -0.0292,0.1786 -0.1584,0.3393 -0.1307,0.1624 -0.2061,0.0825 -0.29,0.2906 -0.01,-0.0162 -0.015,-0.0278 -0.0165,-0.0542 -0.0464,-0.8217 -0.638,-0.3668 -0.8129,-0.4436 -0.565,-0.299 -0.0958,-0.2665 -0.3955,-0.5941 -0.2573,-0.2812 -0.2588,-0.0723 -0.6244,-0.542 -0.0899,-0.1151 -0.184,-0.1933 -0.2895,-0.2911 -0.0776,-0.0718 -0.0634,-0.0499 -0.1289,-0.1197 -0.6404,-0.682 -0.8005,-0.4634 -0.8005,-0.775 0,-0.5845 0.0782,-0.6471 -0.0185,-1.0567 -0.0819,-0.3481 -0.006,-0.0641 -0.0204,-0.3016 -0.0221,-0.3646 -0.4172,-0.7509 -0.7075,-0.9638 -0.4935,0.737 -0.7719,1.6577 -1.1778,2.3054 -0.2662,0.4247 -0.2903,0.7583 -0.4419,1.3071 -0.0836,0.3019 -0.2262,0.9717 -0.1219,1.1973 -0.354,-0.0944 -0.1709,-0.1258 -0.2324,-0.3101 -0.1231,-0.3676 -0.0179,-0.0159 -0.2651,-0.3532 -0.2324,0.123 -0.4904,0.4292 -0.7463,0.4975 l 0.2877,0.1267 c 0.1749,0.1074 0.1077,0.0525 0.2097,0.205 -0.5295,-0.1233 -0.4776,0.0898 -0.7188,0.2177 -0.3453,0.1828 -0.0462,-0.1497 -0.3527,0.2015 l -0.1304,0.2032 c -0.0748,0.1208 -0.0722,0.1072 -0.125,0.207 -0.5003,0 -1.0607,-0.1962 -1.7087,-0.0754 -0.0116,0.0022 -0.0354,0.0082 -0.047,0.0102 -0.0119,0.0022 -0.036,0.0068 -0.0482,0.0091 0,0 -0.1435,0.0204 -0.1591,0.0223 -0.2976,0.0369 -0.5385,0.0338 -0.8566,0.0338 -0.0232,0.2817 -0.0632,0.3036 -0.1658,0.4975 -0.6276,-0.0522 -0.601,-0.3532 -1.1741,0.07 l -0.2682,0.1462 c -0.2883,0.1457 -0.0691,-0.049 -0.2418,0.173 -0.1641,0.2111 -0.0657,0.3189 -0.3381,0.4966 -0.2382,0.1553 -0.2314,0.0422 -0.5486,0.1094 0.0703,-0.3314 -0.0195,-0.2064 0.0488,-0.4575 0.1106,-0.4071 0.4017,-0.5584 0.5547,-0.9295 0.0837,-0.203 0.1197,-0.299 0.3087,-0.4374 l 0.0831,0.4147 c 0.004,-0.0518 0.0184,-0.2333 0.0196,-0.265 0.0136,-0.3566 0.0895,-0.4833 0.4881,-0.4241 0.7364,0.1094 0.4359,0.377 0.902,0.6891 0.1304,-0.5592 0.1768,-0.6123 0.6474,-0.7625 0.2271,-0.0726 0.3793,-0.2809 0.5136,-0.4816 l -0.0592,-0.1066 c -0.0763,-0.1236 -0.009,-0.0394 -0.0961,-0.1528 -0.222,-0.2894 -0.5737,-0.3362 -0.3421,-0.8186 -0.368,-0.0082 -0.385,0.0264 -0.4148,-0.3317 h -0.3316 c -0.0482,-0.5774 -0.3529,-0.2114 -0.7569,-0.4872 -0.2616,-0.1789 -0.049,-0.1287 -0.2656,-0.315 -0.1641,-0.1414 -0.6491,-0.2636 -0.8611,-0.3826 l -1.4335,-0.4737 -0.3838,1.4406 c -0.1154,0.2177 -0.2367,0.3634 -0.347,0.5652 l -0.4445,0.5508 c -0.1893,0.286 -0.0898,0.4081 -0.1873,0.7248 -0.0856,0.2769 -0.254,0.2956 -0.3875,0.5249 -0.1378,0.2365 -0.6327,1.0491 -0.6548,1.2521 l -0.1015,-0.2191 c -0.0556,-0.0595 0.0587,-0.3322 -0.3753,0.3212 -0.1018,0.153 -0.0111,0.0399 -0.1038,0.1468 0.0244,-0.2948 0.0326,-0.2174 0.1457,-0.4346 l 0.6747,-1.6475 c 0.0833,-0.1482 0.1825,-0.1663 0.2679,-0.3126 0.1669,-0.2866 0.0742,-0.7104 0.2602,-0.9836 0.2364,-0.3484 0.2772,-0.1151 0.4388,-0.722 0.1729,-0.6486 0.3727,-0.4556 0.8186,-0.9236 0.5134,-0.5385 0.2013,-0.3925 0.6282,-1.0298 0.7841,0.0173 1.2399,0.3521 1.9902,0.4147 -0.0955,-0.2318 -0.1043,-0.7347 -0.2821,-1.0448 -0.1182,-0.2067 -0.0558,-0.0785 -0.1683,-0.3291 -0.6716,-1.4947 -0.5174,-0.9312 -1.3547,-1.7138 l -0.8589,-0.9655 c -0.0122,-0.0122 -0.0746,-0.0581 -0.127,-0.1219 -0.1981,-0.2404 -0.3603,-0.595 -0.3603,-0.8836 0,-0.339 0.0306,-0.002 0.0984,-0.2707 l 0.1309,-0.6588 c 0.0913,-0.2483 0.8629,-1.472 0.005,-1.9581 -0.3265,-0.1851 -0.5045,-0.421 -0.8977,-0.5125 0.0113,-0.5026 0.2489,-0.5596 0.2489,-0.995 0,-0.3495 -0.2038,-0.1794 -0.4329,-0.3104 -0.2982,-0.1709 0.2991,-0.1584 -0.3447,-0.9853 -0.4342,-0.5576 -0.8971,-0.3575 -1.4575,-0.1931 -0.2815,0.0828 -0.3906,0.2013 -0.5253,0.47 -0.4765,0.9525 -0.7296,1.042 -1.2662,2.2995 -0.3198,0.7489 -0.7832,1.1458 -0.7832,2.0364 0,0.3725 0.1559,0.2577 0.1199,0.5533 -0.0465,0.385 -0.4317,1.4074 -0.6336,1.7527 l -0.4215,0.7449 c -0.007,0.0159 -0.0187,0.0377 -0.0249,0.0533 -0.006,0.0145 -0.0173,0.0366 -0.0224,0.0511 -0.0757,0.2154 0.007,0.5269 -0.008,0.826 -0.021,0.4345 -0.0905,0.3197 -0.1704,0.6627 h -0.4975 l -0.1774,0.5766 c -0.6435,0.0045 -0.4748,-0.2214 -0.8677,-0.1358 -0.0159,0.0037 -0.0414,0.0116 -0.0576,0.015 -0.1145,0.0241 -0.0558,0.0108 -0.17,0.0264 -0.2546,0.0348 -0.3946,0.5238 -0.4618,0.7687 -0.3473,1.2649 -0.4802,3.2607 -0.0913,4.4723 0.0919,0.2863 0.0805,0.1309 0.1772,0.4033 0.0921,0.2588 0.089,0.5885 0.1754,0.9029 0.0916,0.3347 0.2787,0.4478 0.3121,0.8487 0.4842,0 0.2693,-0.0562 0.491,0.1723 0.2588,0.2665 0.4011,0.4232 0.7872,0.5397 0.1046,0.0315 0.1565,0.0451 0.2517,0.0802 0.2877,0.1061 -0.0383,0.0312 0.2945,0.1199 0.1752,-0.424 -0.0725,-0.5337 -0.0828,-0.9949 0.4119,-0.11 0.0925,-0.1661 0.7461,-0.1661 0.0332,-0.3977 0.0108,-0.2087 0.2807,-0.383 0.269,-0.1738 0.1783,-0.2035 0.4657,-0.2803 0.4019,0.6001 -0.1834,0.3923 0.4147,0.9122 0.288,-0.0239 0.3484,-0.1112 0.6041,-0.2254 0.0178,-0.0079 0.0385,-0.0184 0.0567,-0.0261 l 0.1199,-0.0462 c 0.911,-0.2903 0.6573,-0.0972 1.1627,0.0057 0.4411,0.0898 0.0278,-0.1262 0.4879,-0.0627 0.6794,0.0936 0.6868,1.4321 0.803,1.9304 l -0.642,-0.2778 c -0.4442,-0.1451 -0.0746,0.0984 -0.6849,0.1117 -0.0819,-0.2265 0.004,-0.1703 -0.3316,-0.2486 -0.0814,0.2242 -0.2024,0.1752 -0.3544,0.3535 l -0.0779,0.1485 c -0.002,0.0094 -0.007,0.0335 -0.008,0.0431 l 0.0258,0.2013 c 0,0.3124 -0.0547,0.1567 -0.0831,0.4975 0.332,0 0.271,-0.0431 0.4904,0.0915 0.2109,0.1296 0.0924,0.1276 0.1732,0.3232 0.6803,0 0.7673,0.5204 1.4403,0.2843 1.1265,-0.3952 1.6407,0.2823 1.0916,0.6718 -0.0921,0.0652 -0.0513,0.0187 -0.163,0.0862 -0.2486,0.1496 -0.5488,0.3126 -0.7103,0.5332 0.1612,0.0652 0.2066,0.1598 0.2769,0.3166 0.1012,0.2265 -0.0442,-0.0567 0.0731,0.1715 0.1316,0.2554 0.0159,-0.1052 0.1474,0.2582 -0.1465,-0.0703 -0.1819,-0.0501 -0.3092,-0.1051 -0.2773,-0.1197 -0.6517,-0.3997 -0.9346,-0.4754 0.144,-0.2152 0.0842,-0.2211 0.4147,-0.2486 -0.1284,-0.1752 -0.235,-0.2115 -0.4147,-0.3317 -0.0652,0.5956 -0.3455,-0.0187 0,0.4975 -0.3319,0.0074 -0.1715,0.0479 -0.4975,0.1659 -0.1069,-0.1594 -0.1718,-0.2691 -0.2914,-0.455 -0.0133,-0.0207 -0.0524,-0.0794 -0.0663,-0.0995 -0.01,-0.0145 -0.0252,-0.0335 -0.0355,-0.0476 l -0.252,-0.4984 c -0.1275,-0.2874 -0.2148,-0.5419 0.0647,-0.807 -0.3674,-0.0856 -0.2716,-0.1414 -0.6738,-0.1817 -0.3878,-0.0391 -0.0868,0.0204 -0.3348,-0.1278 -0.0113,-0.0065 -0.0312,-0.0227 -0.0419,-0.0289 -0.01,-0.0057 -0.0307,-0.0193 -0.0397,-0.0241 l -0.1539,-0.0519 c 0.005,-0.055 0.0153,-0.1568 0.0181,-0.2027 10e-4,-0.0159 10e-4,-0.0439 0.002,-0.0609 0.002,-0.023 0.003,-0.0893 0.005,-0.1117 l 0.1401,-0.3711 c -0.0423,0.0097 -0.3223,0.0757 -0.334,0.0808 -0.1834,0.0788 -0.3058,0.254 -0.3563,0.468 -0.119,0.5018 0.2702,0.3538 -0.3713,0.8788 -0.2262,0.1851 -0.2889,0.6276 -0.5369,0.479 -0.2829,-0.1695 -0.0207,-0.7268 0.1151,-0.9023 l 0.5709,-0.424 -0.3317,-0.0828 c 0.0326,-0.3909 0.0939,-0.2954 -0.0827,-0.6636 -0.2115,0.1511 0.2477,0.3595 -0.3342,0.8269 -0.3025,0.2429 -0.3107,0.3132 -0.4122,0.7489 h -0.2489 c -0.0612,-0.229 -0.2027,-0.383 -0.3339,-0.4255 -0.5315,-0.1723 -0.2852,-0.3506 -0.6256,-0.8541 -0.2648,-0.3914 -0.1789,-0.8846 -0.5355,-1.2126 -0.1712,-0.1573 -0.1672,-0.1304 -0.4124,-0.0785 0,0.3673 0.174,1.4873 0.4694,1.6866 0.3353,0.2262 0.6412,0.3124 0.6052,0.966 -0.0102,0.1854 -0.0153,0.1131 -0.0442,0.1945 -0.0573,0.1616 -0.003,-0.0953 -0.1182,0.2211 0.3087,0.1633 0.5536,0.5397 0.7324,0.8433 l 0.2254,0.3552 c 0.2237,0.3512 0.2197,0.4734 0.5678,0.714 0.2687,0.186 0.1522,0.3929 0.5094,0.4777 l 0.104,0.0226 c 0.322,0.0641 0.413,0.1684 0.6593,0.3495 0.326,0.2401 0.277,-0.0232 0.5315,0.205 l 0.0786,0.0873 c 0.242,0.3152 0.096,1.0344 0.602,0.792 0.0108,-0.0051 0.0338,-0.0249 0.0533,-0.0318 0.0734,0.3161 0.0828,0.3297 0.0828,0.7464 0.4258,0.0989 0.7713,0.3138 1.078,0.5805 -0.326,0.076 -0.3934,0.0491 -0.6919,-0.1391 -0.4796,-0.3028 -0.099,-0.2373 -0.635,-0.1928 0.1622,0.3064 0.2126,0.5599 0.4235,0.8206 0.1894,0.2345 0.4921,0.4573 0.5718,0.7552 -0.6557,-0.1528 -0.4831,-0.3138 -0.8156,-0.7603 -0.2508,-0.3367 -0.7305,-0.595 -0.6936,-1.0984 0.0221,-0.2982 -0.1692,-0.3557 -0.328,-0.6993 -0.2704,-0.5836 -0.0774,-0.5411 -0.6508,-0.9249 0,0.481 0.0533,0.6389 0.083,0.9949 -0.2174,-0.25 -0.3914,-0.5641 -0.6633,-0.7463 l 0.2705,0.6423 c 0.007,0.0136 0.0184,0.0363 0.0246,0.049 0.1588,0.3249 0.4332,0.6276 0.6914,0.8929 l 0.1474,0.1843 c 0.428,0.6018 0.8912,1.2158 1.4151,1.7362 0.123,0.1222 0.1646,0.1633 0.3007,0.2798 l 0.1809,0.1508 c 0.6987,0.5916 0.6499,0.4734 1.4388,0.7172 0.4317,0.1335 0.6333,0.1706 1.0868,0.0745 -0.1289,-0.5533 -0.9269,-0.7458 -1.3269,-0.5805 v -0.2489 c 0.3949,-0.0346 0.1775,0.1145 0.1659,-0.4147 0.606,0 0.4084,-0.0091 0.4864,0.0779 0.1275,0.1423 0.0643,-0.0348 0.0195,0.078 -0.1859,0.4686 0.004,-0.362 -0.1743,0.176 1.2302,0 0.1168,0.2517 0.9743,0.6015 0.4019,0.1639 0.3793,-0.0802 0.4107,0.4054 0.0216,0.3336 -0.0377,0.3923 0.4394,0.4028 l -0.3317,-0.3317 c 0.5395,-0.1142 0.3864,0.0383 0.7331,0.3447 0.3784,0.3348 0.8796,0.4045 1.3059,0.6038 0.0181,0.008 0.04,0.0184 0.0584,0.0264 0.0238,0.0105 0.0952,0.0402 0.119,0.0496 0.3484,0.1363 0.7277,-0.0689 0.6894,0.4325 -3e-4,0.004 -0.008,0.0247 -0.003,0.0358 0.4646,0.1082 1.0642,0.1437 1.4928,-0.0831 0.1292,0.2693 0.0549,0.3385 -0.1846,0.3543 -0.1332,0.009 0.0122,0.0287 -0.2302,-0.0226 -0.008,0.3619 -0.0751,0.3143 0.0273,0.5527 l 0.1389,0.3595 c 0.3642,0.008 0.2582,0.0561 0.5802,0.083 l 0.1998,-0.5465 c 0.2075,-0.3385 0.9743,-1.029 -0.3656,-1.029 0.1111,-0.3348 0.8555,-0.1655 1.0536,0.2001 0.3753,0.6923 -0.5295,0.2044 0.2733,0.629 0.0714,-0.0377 0.0652,-0.0255 0.157,-0.0918 0.1505,-0.1083 0.0394,-0.0456 0.1366,-0.112 0.1877,-0.1284 -0.1771,-0.1156 0.37,-0.1278 -0.1015,0.0765 0.0929,0.0539 -0.2489,0.0828 -0.0491,0.5896 -0.6078,0.2576 -0.9953,0.2488 -0.127,0.5999 0.2172,0.2342 -0.3316,0.4975 0.1321,0.1973 0.1003,0.0865 0.1658,0.332 0.3801,-0.4374 0.2081,-0.2628 0.8294,-0.2489 l -0.4977,0.0828 0.3177,0.2168 c 0.003,0.003 0.008,0.0218 0.0142,0.032 h 0.9122 c 0.008,-0.3654 -0.0136,-0.227 0.0918,-0.3183 l 0.1171,-0.0436 c 0.1743,-0.0202 0.04,-0.0463 0.2055,0.0303 -0.0663,0.2491 0.0235,0.0879 -0.1522,0.2622 -0.0119,0.0122 -0.0303,0.0283 -0.0439,0.0391 -0.2549,0.2058 -0.6974,0.1106 -0.8819,0.362 0.2631,0.0615 0.4853,0.1395 0.7741,0.1888 0.167,0.0286 0.2166,-0.1497 0.2186,0.0711 0.003,0.3266 -0.4068,-0.3282 -0.1633,0.1548 0.161,0.3197 0.9179,0.3453 1.2595,0.4167 0.2846,0.0595 0.2018,0.1324 0.4818,-0.002 -0.0949,0.3977 -0.0564,0.129 0,0.2486 h 1.6586 c 0.286,0 0.3212,-0.0612 0.5805,-0.0828 l -0.4308,-0.4821 c 0.6191,0.0961 1.0496,0.3067 1.8275,0.2259 0.1862,-0.0193 0.5521,-0.1585 0.6766,-0.1585 0.6647,0 0.6695,0.1914 1.3377,-0.072 0.2678,-0.1057 0.2497,-0.1601 0.5578,-0.2715 l 0.4317,-0.1486 c 0.1721,-0.0785 0.074,-0.028 0.1608,-0.0884 0.3687,0.1224 0.043,0.0456 0.1295,0.0952 0.2251,0.1296 0.5357,-0.0377 0.7826,-0.0952 v 0.2489 c -1.5961,0.3719 -3.158,0.9178 -4.892,0.913 -0.5709,-10e-4 -0.7662,0.0899 -1.3286,0.0867 -4.5088,-0.0246 -9.0981,-1.7526 -12.4041,-4.3511 l -1.921,-1.7277 c -1.1557,-1.1455 -2.3786,-2.7244 -3.1167,-4.1812 -0.7427,-1.4652 -1.2042,-2.4536 -1.7241,-4.0807 -1.3932,-4.3605 -0.9521,-10.2251 1.033,-14.1636 0.9003,-1.7858 1.9119,-3.6139 3.3517,-5.0241 l 0.5802,-0.6639 c 0.2222,-0.2537 0.383,-0.3044 0.6242,-0.5369 0.8192,-0.7889 1.7093,-1.4981 2.6799,-2.1299 1.8093,-1.1775 3.6981,-2.0452 5.8719,-2.5866 5.8712,-1.4622 12.0549,-0.3076 16.8146,3.1886 0.8118,0.5965 1.3374,1.1829 1.6299,1.3556 0.7115,0.4204 1.5934,1.5777 2.1147,2.1977 0.4147,0.4929 0.7083,0.877 1.0689,1.4187 1.366,2.0534 2.4511,4.3331 2.9631,6.8227 0.6202,3.0167 0.6338,5.8972 -0.029,8.9156 -0.2973,1.3549 -0.78,2.7036 -1.3206,3.8208 -0.8073,1.6682 -1.7345,3.2592 -2.9761,4.653 -0.3169,0.3555 -0.8328,1.1367 -1.3076,1.2634 l 0.6284,-0.7812 c 0.1355,-0.1463 0.0204,-0.0113 0.1542,-0.1777 0.2699,-0.3356 0.5304,-0.671 0.669,-1.0724 l 0.2347,-0.5944 c 0.0952,-0.1689 0.0587,-0.1026 0.138,-0.1939 -0.1417,-0.1981 -0.1882,0.1667 -0.4393,0.4728 -0.1576,0.1925 -0.2568,0.3164 -0.402,0.5103 -0.2256,0.3019 -0.591,0.7543 -0.7339,1.0907 -0.1686,0.3977 -0.3208,0.8499 -0.6434,1.188 -0.3152,0.3306 -0.1636,0.027 -0.4139,0.3552 -0.0754,0.0987 -0.2707,0.1012 -0.4357,0.1148 l 0.4975,-0.7463 c -0.5564,0.0609 -0.1077,0.4147 -1.6585,0.4147 0.2661,-0.555 0.1238,-1.0443 0,-1.5758 0.627,-0.146 0.5374,-0.5281 0.9694,-0.3963 0.0527,0.0159 -0.003,0.0434 0.1916,0.0646 0.1381,-0.2063 0.2682,-0.3163 0.4337,-0.5612 0.218,-0.3229 0.7308,-1.4009 0.7614,-1.772 0.0366,-0.4444 0.0139,-1.1057 -0.0947,-1.5091 -0.1539,-0.5706 -0.233,-0.3303 -0.5198,-0.1381 -0.1319,-0.2491 -0.2744,-0.4776 -0.2722,-0.7103 0.006,-0.6072 -0.1136,-0.3637 -0.2256,-0.7824 0.2795,-0.3815 0.8915,-0.72 0.9122,-1.6585 -0.6894,-0.0153 -0.4629,-0.4445 -0.669,0.5502 -0.0431,0.2075 0.0706,0.1114 -0.0881,0.3503 -0.2013,0.3028 -0.1659,0.1063 -0.4868,0.2602 0.0919,0.4332 -0.0161,0.4292 -0.2488,0.7464 -0.1316,-0.0306 -0.5409,-0.2021 -0.5457,-0.2027 -0.5012,-0.0666 0.2934,0.599 -0.5324,0.6174 -0.0158,-0.7183 -0.191,0.0286 -0.2486,-0.6633 -0.248,-0.0272 -0.2109,-0.0385 -0.3319,-0.1658 l 0.3677,-0.5034 c 0.1258,-0.1273 8e-4,0.2293 0.1301,-0.1602 h 0.3316 c 0.0369,0.434 -0.0791,0.1499 0.1659,0.2489 0.1709,-0.1486 0.1247,-0.1418 0.4147,-0.1659 v -0.1658 c -0.3175,-0.074 -0.5806,-0.3058 -0.5806,-0.6636 0,-0.2735 0.1182,-0.1723 0.3025,-0.3608 0.174,-0.1786 0.1607,-0.2733 0.2832,-0.4666 0.0774,-0.1225 0.0652,-0.0811 0.1491,-0.1913 l 0.2605,-0.5568 c -0.1973,-0.1321 -0.0865,-0.1003 -0.332,-0.1658 0.2741,-0.3795 0.0281,-0.032 0.2376,-0.1386 l 0.1295,-0.0754 c 0.1182,-0.0865 -0.0323,0.0014 0.1307,-0.1179 -0.1202,-0.0596 0.0167,-0.0953 -0.2489,0 z m -0.1658,0.9122 -0.0247,-0.0247 c 0.001,0.0017 0.0329,0.0164 0.0247,0.0247 z m 1.078,10.2002 0.0247,0.0249 c -0.002,-0.0017 -0.0329,-0.0167 -0.0247,-0.0249 z m -6.8831,3.9806 c 0.0391,-0.0391 0.47,0.0451 0.1497,0.0445 -3e-4,0 -0.0122,-0.001 -0.0131,-0.002 -0.002,-8e-4 -0.0289,-0.008 -0.0328,-0.009 -0.01,-0.003 -0.2478,0.1102 -0.1038,-0.0338 z m 0.2489,-0.083 c 0.0882,-0.0882 0.3146,0.1318 0.0924,0.0431 -0.002,-6e-4 -0.2313,0.0958 -0.0924,-0.0431 z m -9.2049,-0.8291 c -0.1449,0.1258 -0.1029,0.1125 -0.332,0.1658 0.1874,-0.2557 -0.0536,-0.133 0.332,-0.1658 z m -13.2687,-6.4684 0.0249,0.0246 c -0.002,-0.0017 -0.0332,-0.0164 -0.0249,-0.0246 z m 1.3269,-6.8003 c -0.1423,-0.0176 -0.1171,0.2449 -0.006,0.1108 0,0 0.003,-0.0074 0.003,-0.0077 0,-0.0014 0.002,-0.0218 0.003,-0.0241 5e-4,-0.0073 0.0691,-0.0703 0,-0.079 z m -0.2486,0.1661 0.0246,-0.025 c -0.002,0.0017 -0.0331,0.0168 -0.0246,0.025 z m 1.8243,-0.0831 c 0.082,0.2265 -0.005,0.1707 0.3317,0.2489 -0.1545,-0.2307 -0.0354,-0.1613 -0.3317,-0.2489 z m 27.449,-0.083 c 0,-0.317 -0.0252,-0.0301 0.0831,-0.2486 -0.5063,0.1352 -0.1851,0.1644 -0.3073,0.4393 -0.0428,0.0967 -0.0689,0.0805 -0.0796,0.0944 -0.04,0.0519 -0.0664,-0.2953 -0.1106,0.2126 0.3113,0.0658 0.4127,0.059 0.4357,-0.2701 0.001,-0.0128 0.001,-0.0389 0.001,-0.0519 0,-0.002 -0.0227,-0.1417 -0.0227,-0.1757 z m 0.1659,0.3319 c 0.0346,0.3144 -0.0468,0.2435 0.3319,0.3317 -0.0493,-0.5639 0.023,-0.1123 -0.1967,-0.2455 -0.1539,-0.0936 0.038,-0.019 -0.1352,-0.0862 z m -31.015,0 c -0.2897,0.0774 -0.1863,0.0315 -0.3317,0.2486 0.224,0.0187 0.2257,0.0391 0.4147,0.0831 -0.0944,-0.1903 -0.0499,-0.0737 -0.083,-0.3317 z m 1.4097,0.1658 h -0.1659 c -0.0439,0.1891 -0.0643,0.1908 -0.0827,0.4147 0.1105,-0.0297 0.1363,-0.0062 0.2046,-0.1411 z m -2.3219,0.3317 c 0.0346,0.1491 0.0261,0.1434 0.0666,0.265 z m 0.1658,0.8294 c -0.0297,0.1568 0.1043,0.2948 0.0525,0.0524 -0.001,-0.0056 0.002,-0.3421 -0.0525,-0.0524 z m 28.6932,0.995 0.0246,-0.0247 c -0.001,0.0017 -0.0329,0.0164 -0.0246,0.0247 z m 3.6487,0.4977 c 0.2996,-0.0802 0.2483,-0.0785 0.3824,-0.3654 0.2466,-0.5275 0.0797,-0.5042 0.1928,-1.127 0.064,-0.3521 0.1029,-0.2877 0.1712,-0.5808 l -0.326,-0.0837 c -0.2815,-0.2029 -9e-4,-0.2213 -0.4204,6e-4 0.0836,-0.3586 0.2033,-0.288 -0.0828,-0.4975 -0.0442,0.1891 -0.0643,0.1908 -0.083,0.4147 -0.3331,-0.0776 -0.4249,-0.2151 -0.8292,-0.2488 0.1058,0.396 0.4258,0.684 0.8292,0.4974 0,0.6667 -0.0252,0.3529 0.1428,0.4831 0.4349,0.3361 0.2197,1.0669 0.023,1.5074 z m -0.1658,0.4144 c 0.0881,0.0882 0.3146,-0.1315 0.0924,-0.043 -0.002,8e-4 -0.2313,-0.0959 -0.0924,0.043 z m -33.0883,0.0831 0.0247,-0.0247 c -0.002,0.0015 -0.0329,0.0165 -0.0247,0.0247 z m 5.8879,0.0828 0.0246,-0.0247 c -0.001,0.0017 -0.0328,0.0165 -0.0246,0.0247 z m 27.0207,0.0691 0.1346,0.2075 c 0.095,0.2841 -0.1536,0.614 -0.2035,0.8014 0.413,-0.2764 0.0167,-0.1695 0.6386,-0.6052 l 0.2736,-0.2239 c -0.1177,-0.3547 -0.1551,0.0779 -0.1659,-0.4148 -0.1581,0.1058 -0.2324,0.2299 -0.4269,0.2197 -0.2125,-0.0107 -0.0759,-0.0107 -0.1536,-0.0538 z m -32.6597,0.2628 c -0.0533,-0.229 -0.04,-0.1871 -0.1658,-0.3319 0.0521,0.2242 0.0385,0.1913 0.1658,0.3319 z m 0,0.1658 0.0247,-0.0249 c -0.002,0.0017 -0.0329,0.0167 -0.0247,0.0249 z m 0,-0.6636 c 0.0405,0.4902 0.2101,0.366 0.3098,0.7682 0.1239,0.4986 0.0508,0.4748 0.2707,0.8904 l 0.0967,-0.0692 c 0,-0.0275 -0.0468,-0.0317 -0.0513,-0.0592 -0.0176,-0.1114 -0.072,0.0405 -0.1327,-0.3705 -0.0949,-0.6449 0.1163,-0.8371 -0.4932,-1.1597 z m 32.2588,1.9903 c 0.1418,0.1695 0.009,0.123 0.332,-0.2486 -0.1304,-0.1826 -0.0125,-0.1188 -0.332,0.2486 z m -30.4344,0 c 0,0.2123 0.1312,0.0133 0.0493,0 -10e-4,0 -0.0493,-0.2314 -0.0493,0 z m -0.3317,-0.1659 c 0.0655,0.2455 0.0338,0.1347 0.1659,0.332 l 0.0966,-0.0692 c -0.009,-0.0187 -0.2608,-0.2585 -0.2625,-0.2628 z m 30.6834,0.4147 0.0246,-0.0246 c -0.002,0.0017 -0.0328,0.0164 -0.0246,0.0246 z m -1.1611,2.1563 1.0483,-1.4405 c 0.1184,-0.2378 0.0258,-0.2594 0.1128,-0.6327 -0.2376,0.273 -0.3697,0.7103 -0.5519,1.0236 -0.237,0.4076 -0.476,0.4773 -0.6092,1.0496 z m -29.2737,-1.9904 0.025,-0.0247 c -0.002,0.0017 -0.0332,0.0164 -0.025,0.0247 z m 3.8149,4.727 0.0247,-0.0246 c -0.002,0.001 -0.0329,0.0164 -0.0247,0.0246 z m 3.9804,1.9072 c 0.0644,-0.0879 0.0247,-0.0443 0.1273,-0.1214 l -0.7078,-0.2103 c 0.1142,0.3152 0.0204,0.0405 0.2001,0.2976 l 0.1012,0.1477 c 0.3467,0.4805 0.9346,0.9102 1.5231,1.0474 l -0.3462,-0.2341 c -0.1289,-0.078 -0.2423,-0.1278 -0.3665,-0.2143 z m -0.0828,0.2488 0.0247,0.0247 c -0.002,-0.001 -0.0332,-0.0164 -0.0247,-0.0247 z m 1.3958,0.9814 c -0.004,0.0317 0.3345,0.1579 0.4286,0.1797 l -0.2846,-0.2131 c -0.01,-0.007 -0.0323,-0.0227 -0.0473,-0.0358 z"
         style="fill:#3e4095;fill-opacity:1;fill-rule:evenodd;stroke:none"
         id="path146" />
      <path
         d="m 172.6038,93.1915 c 0.1092,-0.163 0.023,-0.0076 0.1095,-0.1392 0.1596,-0.2429 0.0382,-0.0263 0.1159,-0.2157 0.0944,-0.2293 0.0198,-0.1828 0.174,-0.4065 0.2597,-0.3761 0.3436,-0.498 0.5956,-0.5655 -0.2511,-0.2384 -0.5227,-0.8351 -0.1208,-1.116 0.3734,-0.2608 0.7166,-0.2426 1.1727,-0.1649 0.005,0.0011 0.2557,-0.2844 0.1273,0.3682 -0.04,0.2038 -0.0757,0.3495 -0.1431,0.5459 -0.0468,0.1361 -0.0377,0.1837 -0.169,0.2571 l -0.1207,0.027 c 0,0.2897 -0.0936,0.8532 -0.2597,0.9833 -0.1859,0.146 -0.178,0.0482 -0.4867,0.5091 0.7192,0.0788 -0.4119,0.3319 0.6636,0.3319 -0.1409,0.341 0,-0.1233 0,0.5803 -0.4686,0 -0.5414,0.0502 -0.8532,-0.1477 z"
         style="fill:#3e4095;fill-opacity:1;fill-rule:evenodd;stroke:none"
         id="path148" />
      <path
         d="m 173.1844,88.3817 c -0.1868,0.2548 0.0533,0.1338 -0.332,0.1658 0.0633,-0.055 0.0233,-0.0552 0.1401,-0.1091 0.1737,-0.0802 0.0408,-0.0207 0.1919,-0.0567"
         style="fill:#3e4095;fill-opacity:1;fill-rule:evenodd;stroke:none"
         id="path150" />
      <path
         d="m 189.1066,103.3917 c 0.085,-0.0853 0.2999,0.1194 0.0961,0.0448 -0.002,-8e-4 -0.2353,0.0944 -0.0961,-0.0448"
         style="fill:#3e4095;fill-opacity:1;fill-rule:evenodd;stroke:none"
         id="path152" />
    </g>
  </g>
</svg>
